<?xml version="1.0" encoding="utf-8"?>
<!-- Generated by IcoMoon.io -->
<svg version="1.1" xmlns="http://www.w3.org/2000/svg" xmlns:xlink="http://www.w3.org/1999/xlink" width="120" height="168" viewBox="0 0 120 168">
<svg id="icon-arrow" width="24" height="24" viewBox="0 0 24 24" x="0" y="0">
<path fill="#1694ab" d="M9.3 21.6c0.4 0.4 1 0.4 1.4 0s0.4-1 0-1.4l-7.6-7.2h19.8c0.5 0 1-0.4 1-1 0-0.5-0.4-1-1-1h-19.8l7.6-7.2c0.4-0.4 0.4-1 0-1.4-0.2-0.2-0.5-0.3-0.7-0.3s-0.5 0.1-0.7 0.3l-8.7 8.2c-0.3 0.4-0.5 0.9-0.5 1.4s0.2 1 0.6 1.4l8.6 8.2z"></path>
</svg>
<svg id="icon-arrow1" width="20" height="15" viewBox="0 0 24 24" x="24" y="0">
<path fill="#1694ab" d="M9.3 21.6c0.4 0.4 1 0.4 1.4 0s0.4-1 0-1.4l-7.6-7.2h19.8c0.5 0 1-0.4 1-1 0-0.5-0.4-1-1-1h-19.8l7.6-7.2c0.4-0.4 0.4-1 0-1.4-0.2-0.2-0.5-0.3-0.7-0.3s-0.5 0.1-0.7 0.3l-8.7 8.2c-0.3 0.4-0.5 0.9-0.5 1.4s0.2 1 0.6 1.4l8.6 8.2z"></path>
</svg>
<svg id="icon-cancel" width="24" height="24" viewBox="0 0 24 24" x="48" y="0">
<path fill="#fff" d="M13.3 12l10.3-10.3c0.4-0.4 0.4-1 0-1.3-0.4-0.4-1-0.4-1.3 0l-10.3 10.3-10.3-10.3c-0.4-0.4-1-0.4-1.3 0s-0.4 1 0 1.3l10.3 10.3-10.3 10.3c-0.4 0.4-0.4 1 0 1.3 0.2 0.2 0.4 0.3 0.7 0.3s0.5-0.1 0.7-0.3l10.2-10.3 10.3 10.3c0.2 0.2 0.4 0.3 0.7 0.3 0.2 0 0.5-0.1 0.7-0.3 0.4-0.4 0.4-1 0-1.3l-10.4-10.3z"></path>
</svg>
<svg id="icon-Footer-Gmail" width="24" height="24" viewBox="0 0 24 24" x="72" y="0">
<path fill="#fff" d="M0.6 4.5c3.3 2.8 9 7.6 10.7 9.2 0.2 0.2 0.5 0.3 0.7 0.3 0.3 0 0.5-0.1 0.7-0.3 1.7-1.5 7.4-6.4 10.7-9.2 0.2-0.2 0.2-0.5 0.1-0.7-0.4-0.5-0.9-0.8-1.6-0.8h-19.8c-0.6 0-1.2 0.3-1.6 0.8-0.1 0.2-0.1 0.6 0.1 0.7z"></path>
<path fill="#fff" d="M23.6 6c-0.2-0.1-0.4-0.1-0.5 0.1-3.6 3.1-8.2 7-9.7 8.3-0.8 0.7-1.9 0.7-2.8 0-1.5-1.4-6.7-5.8-9.7-8.3-0.1-0.1-0.3-0.2-0.5-0.1s-0.3 0.3-0.3 0.5v12.5c0 1.1 0.9 2 2 2h19.8c1.1 0 2-0.9 2-2v-12.5c0-0.2-0.1-0.4-0.3-0.5z"></path>
</svg>
<svg id="icon-Footer-Location" width="24" height="24" viewBox="0 0 24 24" x="96" y="0">
<path fill="#fff" d="M12 0.1c-4.4 0-8 3.6-8 7.9 0 1.3 0.3 2.6 1 3.8l6.6 11.8c0.1 0.2 0.3 0.3 0.4 0.3 0.2 0 0.3-0.1 0.4-0.3l6.6-11.8c0.6-1.2 1-2.5 1-3.8 0-4.3-3.6-7.9-8-7.9zM12 12c-2.2 0-4-1.8-4-4s1.8-4 4-4 4 1.8 4 4-1.8 4-4 4z"></path>
</svg>
<svg id="icon-Footer-Phone" width="24" height="24" viewBox="0 0 24 24" x="0" y="24">
<path fill="#fff" d="M0.1 17.6v4.4c0 1 0.9 1.9 1.9 1.9 12.1 0 21.9-9.8 21.9-21.9 0-1-0.9-1.9-1.9-1.9h-4.4c-1.1 0-1.9 0.9-1.9 1.9 0 1.5-0.2 2.9-0.7 4.3-0.2 0.7 0 1.4 0.5 1.9l2 2.6c-1.6 3.1-3.5 5-6.7 6.7l-2.7-2c-0.4-0.5-1.2-0.7-1.8-0.5-1.4 0.4-2.8 0.7-4.2 0.7-1.1 0-2 0.9-2 1.9z"></path>
</svg>
<svg id="icon-Home-Play" width="24" height="24" viewBox="0 0 24 24" x="24" y="24">
<path fill="#234d7e" d="M19.6 9.8l-13.2-9.1c-0.6-0.4-1.2-0.6-1.7-0.6-1 0-1.6 0.8-1.6 2.1v19.6c0 1.3 0.6 2.1 1.6 2.1 0.5 0 1.1-0.2 1.7-0.6l13.2-9.1c0.9-0.6 1.3-1.4 1.3-2.2s-0.4-1.6-1.3-2.2z"></path>
</svg>
<svg id="icon-Home-Process_Test" width="24" height="24" viewBox="0 0 24 24" x="48" y="24">
<path fill="#234d7e" d="M18.7 7.2h-6.7c-0.3 0-0.5 0.2-0.5 0.5s0.2 0.5 0.5 0.5h6.7c0.3 0 0.5-0.2 0.5-0.5s-0.2-0.5-0.5-0.5z"></path>
<path fill="#234d7e" d="M17.1 10c0.1-0.1 0.1-0.2 0.1-0.3s0-0.2-0.1-0.3-0.2-0.1-0.3-0.1c-0.1 0-0.2 0-0.3 0.1s-0.1 0.2-0.1 0.3 0 0.2 0.1 0.3 0.2 0.1 0.3 0.1c0.1 0.1 0.2 0.1 0.3-0.1z"></path>
<path fill="#234d7e" d="M12 2c-0.1 0-0.2 0-0.3 0.1s-0.1 0.2-0.1 0.3 0 0.2 0.1 0.3c0.1 0.3 0.2 0.3 0.3 0.3s0.2 0 0.3-0.1 0.1-0.2 0.1-0.3 0-0.3-0.1-0.4c-0.1-0.2-0.2-0.2-0.3-0.2z"></path>
<path fill="#234d7e" d="M12 10.4h2.8c0.3 0 0.5-0.2 0.5-0.5-0.1-0.3-0.3-0.5-0.5-0.5h-2.8c-0.3 0-0.5 0.2-0.5 0.5s0.2 0.5 0.5 0.5z"></path>
<path fill="#234d7e" d="M18.7 12.2h-6.7c-0.3 0-0.5 0.2-0.5 0.5s0.2 0.5 0.5 0.5h6.7c0.3 0 0.5-0.2 0.5-0.5s-0.2-0.5-0.5-0.5z"></path>
<path fill="#234d7e" d="M17.1 15.2c0.1-0.1 0.1-0.2 0.1-0.3s0-0.3-0.1-0.3c-0.1-0.1-0.2-0.1-0.3-0.1s-0.2 0-0.3 0.1c-0.1 0.1-0.1 0.2-0.1 0.3s0 0.2 0.1 0.3 0.2 0.1 0.3 0.1 0.2 0 0.3-0.1z"></path>
<path fill="#234d7e" d="M12 15.4h2.8c0.3 0 0.5-0.2 0.5-0.5-0.1-0.3-0.3-0.5-0.5-0.5h-2.8c-0.3 0-0.5 0.2-0.5 0.5s0.2 0.5 0.5 0.5z"></path>
<path fill="#234d7e" d="M18.7 17.2h-6.7c-0.3 0-0.5 0.2-0.5 0.5s0.2 0.5 0.5 0.5h6.7c0.3 0 0.5-0.2 0.5-0.5s-0.2-0.5-0.5-0.5z"></path>
<path fill="#234d7e" d="M16.8 19.5c-0.1 0-0.2 0-0.3 0.1s-0.1 0.2-0.1 0.3c0 0.1 0 0.2 0.1 0.3s0.2 0.1 0.3 0.1c0.1 0 0.2 0 0.3-0.1s0.1-0.2 0.1-0.3c0-0.1 0-0.2-0.1-0.3s-0.2-0.1-0.3-0.1z"></path>
<path fill="#234d7e" d="M14.8 19.4h-2.8c-0.3 0-0.5 0.2-0.5 0.5s0.2 0.5 0.5 0.5h2.8c0.3 0 0.5-0.2 0.5-0.5 0-0.4-0.3-0.5-0.5-0.5z"></path>
<path fill="#234d7e" d="M19.6 1.9h-3.6c-0.5-0.5-1.2-0.9-2-0.9h-0.4c-0.3-0.6-1-1-1.7-1s-1.3 0.4-1.7 1h-0.3c-0.8 0-1.5 0.3-2 0.8h-3.5c-1.2 0-2.3 1-2.3 2.3v17.5c0 1.2 1 2.3 2.3 2.3h15.2c1.2 0 2.3-1 2.3-2.3v-17.4c0-1.3-1.1-2.3-2.3-2.3zM9.9 2h0.7c0.2 0 0.4 0 0.4-0.2 0.2-0.5 0.6-0.8 1-0.8s0.8 0.3 0.9 0.7c0.1 0.2 0.2 0.3 0.4 0.3h0.7c1 0 1.8 0.8 1.9 1.8h-7.9c0.1-1 0.9-1.8 1.9-1.8zM21 21.5v0c-0.1 0.7-0.7 1.3-1.4 1.3h-15.2c-0.7 0-1.3-0.6-1.3-1.3v-17.3c0-0.7 0.6-1.3 1.3-1.3h2.9c-0.1 0.3-0.2 0.6-0.2 1.1v0.3c0 0.3 0.2 0.5 0.5 0.5h8.9c0.3 0 0.5-0.2 0.5-0.5v-0.3c0-0.4-0.1-0.8-0.2-1.1h2.9c0.7 0 1.3 0.6 1.3 1.3 0 0 0 17.3 0 17.3z"></path>
<path fill="#234d7e" d="M9 7c-0.2-0.1-0.5-0.1-0.7 0l-2 2-0.5-0.6c-0.2-0.2-0.5-0.2-0.7 0-0.2 0.1-0.2 0.5 0 0.6l1 0.9c0.1 0.1 0.2 0.1 0.3 0.1s0.2 0 0.3-0.1l2.3-2.2c0.2-0.2 0.2-0.5 0-0.7z"></path>
<path fill="#234d7e" d="M7.9 17.2h-2.2c-0.3 0-0.5 0.2-0.5 0.5v2.2c0 0.3 0.2 0.5 0.5 0.5h2.2c0.3 0 0.5-0.2 0.5-0.5v-2.2c0-0.3-0.2-0.5-0.5-0.5zM7.4 19.4h-1.3v-1.4h1.3c0 0 0 1.4 0 1.4z"></path>
<path fill="#234d7e" d="M7.9 12.2h-2.2c-0.3 0-0.5 0.2-0.5 0.5v2.2c0 0.3 0.2 0.5 0.5 0.5h2.2c0.3 0 0.5-0.2 0.5-0.5v-2.2c0-0.3-0.2-0.5-0.5-0.5zM7.4 14.4h-1.3v-1.4h1.3c0 0 0 1.4 0 1.4z"></path>
</svg>
<svg id="icon-Home-Process-Cooperation" width="24" height="24" viewBox="0 0 24 24" x="72" y="24">
<path fill="#234d7e" d="M23.4 22.4h-0.5v-16.8c0-0.6-0.5-1-1-1h-4c-0.6 0-1 0.5-1 1v16.8h-1.9v-10.9c0-0.6-0.5-1-1-1h-4c-0.6 0-1 0.5-1 1v10.9h-2v-5c0-0.6-0.5-1-1-1h-4c-0.6 0-1 0.5-1 1v5h-0.4c-0.3 0-0.5 0.2-0.5 0.5s0.2 0.5 0.5 0.5h22.8c0.3 0 0.5-0.2 0.5-0.5s-0.2-0.5-0.5-0.5zM6.1 22.4h-4v-5h4v5zM14 22.4h-4v-10.9h4v10.9zM22 22.4h-4v-16.8h4v16.8z"></path>
<path fill="#234d7e" d="M2.6 10.5c0.1 0 0.2 0 0.3-0.1l8.1-8.1v2.8c0 0.3 0.2 0.5 0.5 0.5s0.5-0.3 0.5-0.5v-4c0-0.3-0.2-0.5-0.5-0.5h-4c-0.3 0-0.5 0.2-0.5 0.5s0.3 0.5 0.5 0.5h2.8l-8.1 8.1c-0.2 0.2-0.2 0.5 0 0.7 0.1 0.1 0.3 0.1 0.4 0.1z"></path>
</svg>
<svg id="icon-Home-Process-Idea" width="24" height="24" viewBox="0 0 24 24" x="96" y="24">
<path fill="#234d7e" d="M16.9 7c-1.3-1.3-3.1-2-5-2-3.7 0.1-6.7 3.1-6.8 6.8 0 2.2 0.9 4.2 2.7 5.6 0.7 0.7 1.2 1.6 1.2 2.6v2.1c0 1.2 0.8 1.8 1.5 1.8h3c0.8 0 1.5-0.7 1.5-1.5v-2.3c0-1 0.5-2.1 1.4-2.8 1.7-1.3 2.6-3.3 2.6-5.4-0.1-1.8-0.9-3.6-2.1-4.9zM14 22.4c0 0.3-0.2 0.5-0.5 0.5h-3c-0.5 0-0.5-0.6-0.5-0.8v-1.2h4v1.5zM15.8 16.6c-1 0.8-1.7 2.1-1.8 3.4h-4c0-1.3-0.6-2.4-1.7-3.3-1.5-1.1-2.3-2.9-2.3-4.8 0.1-3.2 2.8-5.8 6-5.8 1.6 0 3.1 0.6 4.2 1.7 1.2 1.1 1.8 2.6 1.8 4.2 0 1.8-0.8 3.5-2.2 4.6z"></path>
<path fill="#234d7e" d="M12 3.1c0.3 0 0.5-0.2 0.5-0.5v-2c0-0.3-0.2-0.5-0.5-0.5s-0.5 0.2-0.5 0.5v2c0 0.3 0.2 0.5 0.5 0.5z"></path>
<path fill="#234d7e" d="M19.6 3.7l-1.4 1.4c-0.2 0.2-0.2 0.5 0 0.7 0.1 0.1 0.3 0.1 0.4 0.1v0c0.1 0 0.3-0.1 0.3-0.1l1.4-1.4c0.2-0.2 0.2-0.5 0-0.7s-0.5-0.2-0.7 0z"></path>
<path fill="#234d7e" d="M23.4 11.5h-2c-0.3 0-0.5 0.2-0.5 0.5s0.2 0.5 0.5 0.5h2c0.3 0 0.5-0.2 0.5-0.5s-0.2-0.5-0.5-0.5z"></path>
<path fill="#234d7e" d="M18.9 18.3c-0.2-0.2-0.5-0.2-0.7 0s-0.2 0.5 0 0.7l1.4 1.4c0.1 0.1 0.3 0.1 0.4 0.1 0.2 0 0.3 0 0.3-0.1 0.2-0.2 0.2-0.5 0-0.7l-1.4-1.4z"></path>
<path fill="#234d7e" d="M5 18.3l-1.4 1.4c-0.2 0.2-0.2 0.5 0 0.7 0.1 0.1 0.3 0.1 0.4 0.1s0.2 0 0.3-0.1l1.4-1.4c0.2-0.2 0.2-0.5 0-0.7s-0.5-0.2-0.7 0z"></path>
<path fill="#234d7e" d="M2.6 11.5h-2c-0.3 0-0.5 0.2-0.5 0.5s0.2 0.5 0.5 0.5h2c0.3 0 0.5-0.2 0.5-0.5s-0.2-0.5-0.5-0.5z"></path>
<path fill="#234d7e" d="M5 5.8c0.1 0.1 0.3 0.1 0.4 0.1s0.2-0.1 0.3-0.2 0.2-0.5 0-0.7l-1.4-1.4c-0.2-0.2-0.5-0.2-0.7 0s-0.2 0.5 0 0.7l1.4 1.5z"></path>
<path fill="#234d7e" d="M12 7.5c-0.3 0-0.5 0.2-0.5 0.5s0.2 0.5 0.5 0.5c1.9 0 3.5 1.6 3.5 3.5 0 0.3 0.2 0.5 0.5 0.5s0.5-0.2 0.5-0.5c0-2.5-2-4.5-4.5-4.5z"></path>
</svg>
<svg id="icon-Home-Process-Programming" width="24" height="24" viewBox="0 0 24 24" x="0" y="48">
<path fill="#234d7e" d="M21.8 1.4h-19.6c-1.2 0-2.1 1-2.1 2.1v12.9c0 1.2 0.9 2.1 2.1 2.1h7v2.7h-1c-0.4 0-0.7 0.3-0.7 0.7s0.3 0.7 0.7 0.7h7.6c0.4 0 0.7-0.3 0.7-0.7s-0.3-0.7-0.7-0.7h-1v-2.7h7c1.2 0 2.1-0.9 2.1-2.1v-12.9c0-1.1-0.9-2.1-2.1-2.1zM13.4 21.2h-2.7v-2.7h2.7v2.7zM22.5 16.4c0 0.4-0.3 0.7-0.7 0.7h-19.6c-0.4 0-0.7-0.3-0.7-0.7v-1.1h21v1.1zM22.5 14h-21v-10.5c0-0.4 0.3-0.7 0.7-0.7h19.6c0.4 0 0.7 0.3 0.7 0.7 0 0 0 10.5 0 10.5z"></path>
<path fill="#234d7e" d="M8.8 6.6c-0.2-0.3-0.7-0.4-1-0.2l-2.7 1.9c-0.2 0.1-0.3 0.4-0.3 0.6s0.1 0.4 0.3 0.6l2.7 1.9c0.1 0.1 0.3 0.1 0.4 0.1 0.2 0 0.4-0.1 0.6-0.3 0.2-0.4 0.1-0.8-0.2-1l-1.9-1.3 1.9-1.3c0.3-0.2 0.4-0.6 0.2-1z"></path>
<path fill="#234d7e" d="M16.2 6.4c-0.3-0.2-0.8-0.1-1 0.2s-0.1 0.8 0.2 1l1.9 1.3-1.9 1.3c-0.3 0.2-0.4 0.7-0.2 1 0.1 0.2 0.4 0.3 0.6 0.3 0.1 0 0.3 0 0.4-0.1l2.7-1.9c0.2-0.1 0.3-0.3 0.3-0.6s-0.1-0.5-0.3-0.6l-2.7-1.9z"></path>
<path fill="#234d7e" d="M13.7 5.8c-0.3-0.2-0.8-0.1-0.9 0.3l-2.8 4.9c-0.2 0.3-0.1 0.8 0.3 0.9 0.1 0.1 0.2 0.1 0.3 0.1 0.2 0 0.5-0.1 0.6-0.4l2.8-5c0.2-0.2 0.1-0.6-0.3-0.8z"></path>
</svg>
<svg id="icon-Home-Steps_Target-Analysis" width="24" height="24" viewBox="0 0 24 24" x="24" y="48">
<path fill="#234d7e" d="M14.9 6.9c0.1 0 0.2 0 0.3-0.1 0.2-0.2 0.2-0.5 0-0.7s-0.5-0.2-0.7 0c0 0.2 0 0.5 0.1 0.7 0.1 0.1 0.2 0.1 0.3 0.1z"></path>
<path fill="#234d7e" d="M23.8 12.7l-1.7-1.5 1.6-1.6c0.1-0.1 0.2-0.3 0.1-0.5s-0.2-0.3-0.4-0.3h-3.4c-0.4-1.8-1.3-3.5-2.6-4.8-1.9-1.9-4.5-3-7.2-3s-5.2 1.1-7.1 3-3 4.5-3 7.2 1.1 5.3 3 7.2c0.6 0.6 1.2 1.1 1.9 1.5l-1.4 2.5c-0.1 0.1-0.1 0.3 0 0.5 0 0 0.2 0.1 0.3 0.1h2.4c0.2 0 0.3-0.1 0.4-0.2l1-1.7c0.8 0.2 1.7 0.3 2.5 0.3 0.9 0 1.7-0.1 2.5-0.3l1 1.7c0.1 0.1 0.2 0.2 0.4 0.2h2.4c0.2 0 0.3-0.1 0.4-0.2s0.1-0.3 0-0.5l-1.4-2.5c0.7-0.4 1.3-0.9 1.9-1.5 1.3-1.3 2.2-3 2.7-4.8h3.4c0.2 0 0.4-0.1 0.4-0.3 0.1-0.2 0-0.4-0.1-0.5zM22.2 9.7l-0.9 1h-3.3l1-1h3.2zM6.1 22h-1.4l1-1.8c0.3 0.2 0.7 0.3 1.1 0.5l-0.7 1.3zM15.7 22h-1.3l-0.8-1.3c0.4-0.1 0.7-0.3 1.1-0.5l1 1.8zM16.7 17.7c-0.6 0.6-1.3 1.1-2 1.5-0.6 0.3-1.2 0.6-1.8 0.7 0 0 0 0-0.1 0-0.8 0.2-1.7 0.4-2.6 0.4s-1.7-0.1-2.6-0.4c0 0 0 0-0.1 0-0.6-0.2-1.2-0.4-1.8-0.7-0.7-0.4-1.4-0.9-2-1.5-1.7-1.8-2.7-4.1-2.7-6.5s1-4.8 2.7-6.5 4.1-2.7 6.5-2.7 4.8 1 6.5 2.7c1.1 1.1 2 2.5 2.4 4.1h-0.2c-0.1 0-0.2 0-0.3 0.1l-1.2 1.2c-0.1-0.8-0.4-1.7-0.8-2.4-0.1-0.2-0.4-0.3-0.6-0.2s-0.3 0.4-0.2 0.6c0.4 0.8 0.7 1.7 0.8 2.5h-2c-0.1-0.9-0.5-1.8-1.2-2.5-0.8-0.8-1.8-1.2-3-1.2s-2.2 0.4-3 1.2c-0.9 0.9-1.4 1.9-1.4 3.1s0.4 2.2 1.2 3 1.8 1.2 3 1.2 2.2-0.4 3-1.2c0.7-0.7 1.1-1.6 1.2-2.5h2c-0.1 1.5-0.7 2.9-1.8 3.9-1.2 1.2-2.7 1.8-4.4 1.8s-3.2-0.7-4.4-1.8c-1.1-1.2-1.8-2.8-1.8-4.4s0.6-3.2 1.8-4.4c2-2 5-2.4 7.4-1.1 0.2 0.1 0.5 0 0.6-0.2s0-0.5-0.2-0.6c-1.3-0.7-2.9-1-4.4-0.8-1.6 0.2-3 0.9-4.1 2-1.4 1.4-2.1 3.1-2.1 5.1s0.7 3.7 2.1 5.1 3.1 2.1 5.1 2.1 3.7-0.7 5.1-2.1c1.1-1.1 1.8-2.5 2-4l1.2 1.2c0.1 0.1 0.2 0.1 0.3 0.1h0.2c-0.3 1.5-1.1 2.9-2.3 4.1zM11.2 10.1l-1.2 0.7c-0.1 0.1-0.2 0.2-0.2 0.4s0.1 0.3 0.2 0.4l1.1 0.6c0.1 0 0.2 0.1 0.2 0.1 0.2 0 0.3-0.1 0.4-0.2s0.1-0.3 0-0.4h1.7c-0.1 0.7-0.4 1.3-0.9 1.8-0.6 0.6-1.4 1-2.3 1s-1.7-0.3-2.3-1c-0.6-0.6-1-1.4-1-2.3s0.3-1.7 1-2.3c0.6-0.6 1.4-1 2.3-1s1.7 0.3 2.3 1c0.5 0.5 0.8 1.1 0.9 1.8h-1.7c0.1-0.1 0.1-0.3 0.1-0.4-0.1-0.2-0.4-0.3-0.6-0.2zM19.1 12.6l-1-1h3.2l1 1h-3.2z"></path>
</svg>
<svg id="icon-Home-Steps-Data-Structures" width="24" height="24" viewBox="0 0 24 24" x="48" y="48">
<path fill="#234d7e" d="M3.7 9.2h0.8v6.4h-0.8v-6.4z"></path>
<path fill="#234d7e" d="M20.8 5.4l-1.1-1.1 0.6-0.6 0.5 0.5 1.6-1.6c-0.4-0.3-1-0.6-1.6-0.6-1.2 0-2.2 0.9-2.4 2h-1.6v0.8h1.6c0.2 1.1 1.2 2 2.4 2 1.3 0 2.4-1.1 2.4-2.4 0-0.4-0.1-0.8-0.3-1.1l-2.1 2.1z"></path>
<path fill="#234d7e" d="M23.9 2.3l-0.6-0.6-0.9 0.9c0.2 0.2 0.4 0.4 0.5 0.6l1-0.9z"></path>
<path fill="#234d7e" d="M7.1 3.5c0-0.2-0.1-0.4-0.2-0.6l-0.1-0.2 0.5-0.7-0.7-0.7-0.8 0.4-0.2-0.1c-0.2-0.1-0.4-0.2-0.6-0.2l-0.2-0.1-0.2-0.9h-1l-0.2 0.9-0.3 0.1c-0.1 0-0.3 0.1-0.5 0.2l-0.2 0.1-0.8-0.4-0.7 0.7 0.5 0.8-0.1 0.1c-0.1 0.2-0.2 0.4-0.3 0.6v0.2l-0.9 0.2v1l0.9 0.3v0.2c0.1 0.2 0.1 0.4 0.2 0.5l0.1 0.2-0.4 0.8 0.7 0.7 0.8-0.5 0.2 0.1c0.2 0.1 0.4 0.2 0.5 0.3l0.2 0.1 0.2 0.9h1l0.2-0.9 0.3-0.1c0.2-0.1 0.4-0.1 0.5-0.2l0.2-0.1 0.8 0.5 0.7-0.7-0.4-0.9 0.1-0.2c0.1-0.2 0.2-0.3 0.2-0.5l0.1-0.2 0.9-0.2v-1l-0.9-0.3-0.1-0.2zM4.1 6.8c-1.3 0-2.4-1.1-2.4-2.4s1.1-2.4 2.4-2.4 2.4 1.1 2.4 2.4-1.1 2.4-2.4 2.4z"></path>
<path fill="#234d7e" d="M4.1 2.8c-0.9 0-1.6 0.7-1.6 1.6s0.7 1.6 1.6 1.6 1.6-0.7 1.6-1.6-0.7-1.6-1.6-1.6z"></path>
<path fill="#234d7e" d="M16 3.2h-5.6v3.6c0 0.2 0.2 0.4 0.4 0.4h4.8c0.3 0 0.4-0.2 0.4-0.4v-3.6zM11.3 4h0.8v0.8h-0.8v-0.8zM15.2 6.4h-4v-0.8h4v0.8zM15.2 4.8h-2.4v-0.8h2.4c0 0 0 0.8 0 0.8z"></path>
<path fill="#234d7e" d="M16 2c0-0.2-0.2-0.4-0.4-0.4h-4.8c-0.2 0-0.4 0.2-0.4 0.4v0.4h5.6v-0.4z"></path>
<path fill="#234d7e" d="M0.1 23.2c0 0.2 0.2 0.4 0.4 0.4h7.2c0.2 0 0.4-0.2 0.4-0.4v-5.2h-8c0 0 0 5.2 0 5.2zM4.9 18.8h2.4v0.8h-2.4v-0.8zM4.9 20.4h2.4v0.8h-2.4v-0.8zM0.9 18.8h3.2v2.4h-3.2v-2.4zM0.9 22h6.4v0.8h-6.4v-0.8z"></path>
<path fill="#234d7e" d="M7.7 16.4h-7.2c-0.2 0-0.4 0.2-0.4 0.4v0.4h8v-0.4c0-0.2-0.2-0.4-0.4-0.4z"></path>
<path fill="#234d7e" d="M1.7 19.6h1.6v0.8h-1.6v-0.8z"></path>
<path fill="#234d7e" d="M17.6 17.2h0.8v0.8h-0.8v-0.8z"></path>
<path fill="#234d7e" d="M16 20.8c0 0.2 0.2 0.4 0.4 0.4h6.4c0.2 0 0.4-0.2 0.4-0.4v-5.2h-7.2v5.2zM20 16.4h2.4v0.8h-2.4v-0.8zM20 18h2.4v0.8h-2.4v-0.8zM16.8 16.4h2.4v2.4h-2.4v-2.4zM16.8 19.6h5.6v0.8h-5.6v-0.8z"></path>
<path fill="#234d7e" d="M22.8 14h-6.4c-0.2 0-0.4 0.2-0.4 0.4v0.4h7.2v-0.4c0-0.2-0.2-0.4-0.4-0.4z"></path>
<path fill="#234d7e" d="M13.7 13.5c0.7-0.2 1.2-0.8 1.2-1.5s-0.5-1.4-1.2-1.5v-2.5h-0.8v2.4c-0.7 0.2-1.2 0.8-1.2 1.5s0.5 1.4 1.2 1.5v4.6h2.4v-0.8h-1.6c0 0 0-3.7 0-3.7z"></path>
<path fill="#234d7e" d="M8.9 4h0.8v0.8h-0.8v-0.8z"></path>
</svg>
<svg id="icon-Home-Steps-Idea-Analysis" width="24" height="24" viewBox="0 0 24 24" x="72" y="48">
<path fill="#234d7e" d="M19 9.2c-0.2 0.2-0.2 0.5 0 0.7 0 0.1 0.2 0.1 0.3 0.1s0.2 0 0.3-0.1c0.3-0.2 0.3-0.5 0.1-0.7s-0.5-0.2-0.7 0z"></path>
<path fill="#234d7e" d="M18.8 8.4c-0.3-0.2-0.5-0.3-0.8-0.5-1.5-0.8-3.2-0.9-4.7-0.5-0.3 0.1-0.4 0.3-0.3 0.6 0.1 0.2 0.3 0.4 0.6 0.3 1.3-0.4 2.7-0.3 4 0.4 0.2 0.2 0.4 0.3 0.7 0.5 0.1 0.1 0.2 0.1 0.3 0.1s0.3-0.1 0.4-0.2c0-0.2 0-0.5-0.2-0.7z"></path>
<path fill="#234d7e" d="M23 14.4c-0.2-0.4-0.5-1.1-0.5-1.3 0.5-1.3 0.3-2.8-0.6-4.2-1.4-2.1-4.2-3.6-6.8-3.6-1.3 0-2.7 0.3-3.8 0.9-0.3-1.7-1.9-3.2-3.9-3.2-2.2 0-4 1.8-4 4 0 1.4 0.7 2.7 1.9 3.4 0.3 0.2 0.4 0.4 0.4 0.7v2.7c0 0.5 0.4 0.9 0.9 0.9h0.2c0.3 2 1.2 3.9 2.8 5.2 0 0 0.1 0.3-0.1 0.9-0.1 0.6-0.3 1.2-0.5 1.7-0.1 0.3-0.2 0.6-0.3 0.8 0 0.1 0 0.3 0.1 0.4s0.2 0.2 0.4 0.2h6.6c0.2 0 0.5-0.1 0.7-0.6 0.1-0.2 0.1-0.4 0.2-0.7s0.2-0.8 0.3-0.9c0 0 0 0 0.1 0 0.7 0 1.3 0 1.8 0.1 1.5 0.1 2.4 0.1 3.1-1 0.4-0.6 0.4-1.4 0.3-2.3 0-0.5 0-0.9 0-1.3 0.1-0.1 0.3-0.2 0.4-0.3 0.4-0.3 0.9-0.6 0.9-1-0.1-0.3-0.3-0.8-0.6-1.5zM6.5 10.6c0-0.4-0.2-0.7-0.7-1-0.9-0.5-1.4-1.5-1.4-2.6 0-1.7 1.4-3 3-3 1.7 0 3 1.4 3 3 0 1.1-0.5 2-1.5 2.6-0.4 0.3-0.7 0.6-0.8 1h-1.6zM8 11.6v0.7h-1.3v-0.7h1.3zM6.7 13.8v-0.7h1.3v0.7h-1.3zM22.2 16.1c-0.4 0.3-0.7 0.5-0.8 0.9-0.1 0.5 0 1 0 1.6 0 0.7 0.1 1.4-0.1 1.7-0.5 0.7-0.9 0.7-2.3 0.6-0.5 0-1.1-0.1-1.8-0.1-0.3 0-0.7 0-1 0.6-0.2 0.3-0.2 0.7-0.3 1 0 0.2-0.1 0.4-0.1 0.5h-6c0-0.1 0-0.1 0.1-0.2 0.7-1.7 1.1-2.9 0.4-3.5-1.4-1.2-2.3-2.8-2.5-4.6h0.2c0.5 0 0.9-0.4 0.9-0.9v-2.7c0-0.3 0.1-0.5 0.4-0.7 1.1-0.7 1.8-1.8 1.9-3.1 1.1-0.7 2.4-1 3.8-1 2.2 0 4.8 1.4 6 3.2 0.5 0.8 1 2 0.5 3.3-0.2 0.4 0.1 1 0.5 2 0.1 0.3 0.4 0.8 0.4 1s-0.1 0.3-0.2 0.4z"></path>
<path fill="#234d7e" d="M8.3 6c0.3 0.1 0.4 0.3 0.5 0.6 0.1 0.4-0.1 0.8-0.1 1-0.2 0.2-0.2 0.5 0.1 0.6 0.1 0 0.2 0.1 0.2 0.1 0.2 0 0.3-0.1 0.4-0.2 0.2-0.3 0.5-1 0.3-1.7-0.1-0.5-0.5-0.9-1-1.2-0.2-0.1-0.5 0-0.7 0.2 0 0.2 0 0.5 0.3 0.6z"></path>
<path fill="#234d7e" d="M7.4 2.4c0.3 0 0.5-0.2 0.5-0.5v-1.3c0-0.3-0.2-0.5-0.5-0.5-0.4 0-0.5 0.2-0.5 0.5v1.3c0 0.3 0.1 0.5 0.5 0.5z"></path>
<path fill="#234d7e" d="M2.8 7c-0.1-0.2-0.3-0.4-0.5-0.4h-1.4c-0.2 0-0.4 0.2-0.4 0.4 0 0.3 0.2 0.5 0.5 0.5h1.3c0.2 0 0.5-0.2 0.5-0.5z"></path>
<path fill="#234d7e" d="M4.5 2.8c0 0.2 0.2 0.2 0.3 0.2s0.2 0 0.2 0c0.2-0.1 0.3-0.4 0.1-0.7l-0.6-1.1c-0.1-0.2-0.3-0.3-0.6-0.2-0.2 0.2-0.4 0.4-0.1 0.7l0.7 1.1z"></path>
<path fill="#234d7e" d="M1.5 4.2l1.1 0.7c0.2 0 0.3 0.1 0.3 0.1 0.1 0 0.3-0.1 0.4-0.2 0.2-0.3 0.1-0.6-0.1-0.7l-1.2-0.7c-0.2-0.1-0.5 0-0.6 0.2s-0.1 0.5 0.1 0.6z"></path>
<path fill="#234d7e" d="M11.9 4.9c0.1 0 0.2 0 0.2-0.1l1.1-0.7c0.3 0 0.4-0.3 0.2-0.5-0.1-0.2-0.4-0.3-0.6-0.2l-1.1 0.7c-0.2 0.1-0.3 0.4-0.2 0.6 0 0.1 0.2 0.2 0.4 0.2z"></path>
<path fill="#234d7e" d="M2.7 9.2l-1.2 0.7c-0.2 0.1-0.3 0.4-0.2 0.6 0.1 0.1 0.2 0.2 0.4 0.2 0.1 0 0.2 0 0.2-0.1l1.3-0.6c0.2-0.1 0.3-0.4 0.1-0.6-0.1-0.2-0.4-0.3-0.6-0.2z"></path>
<path fill="#234d7e" d="M5 11.3c-0.2-0.1-0.5-0.1-0.6 0.2l-0.6 1c-0.1 0.2-0.1 0.5 0.2 0.6 0.1 0 0.2 0.1 0.2 0.1 0.2 0 0.3-0.1 0.4-0.2l0.6-1c0.1-0.3 0-0.6-0.2-0.7z"></path>
<path fill="#234d7e" d="M9.8 3c0 0 0.1 0 0.2 0 0.2 0 0.3-0.1 0.4-0.2l0.6-1.1c0.1-0.3 0-0.5-0.2-0.7-0.2-0.1-0.5-0.1-0.6 0.2l-0.7 1.1c0 0.3 0 0.6 0.3 0.7z"></path>
</svg>
<svg id="icon-Home-Steps-Programming" width="24" height="24" viewBox="0 0 24 24" x="96" y="48">
<path fill="#234d7e" d="M22.7 11.6v-8.7c0-1.1-0.9-2-2-2h-17.4c-1.1 0-2 0.9-2 2v5.9c-0.7 0-1.2 0.5-1.2 1.2v11.9c0 0.7 0.5 1.2 1.2 1.2h8.7c0.7 0 1.2-0.5 1.2-1.2h3.3c0.4 0 0.7-0.2 0.9-0.5s0.3-0.7 0.2-1l-0.8-2.9h2.3v4.4c0 0.7 0.5 1.2 1.2 1.2h4.4c0.7 0 1.2-0.5 1.2-1.2v-9.1c0-0.7-0.5-1.2-1.2-1.2zM10.4 21.9c0 0.2-0.2 0.4-0.4 0.4h-8.7c-0.2 0-0.4-0.2-0.4-0.4v-0.8h9.5v0.8zM10.4 20.3h-9.5v-8.7h9.5v8.7zM10.4 10.8h-9.5v-0.8c0-0.2 0.2-0.4 0.4-0.4h8.7c0.2 0 0.4 0.2 0.4 0.4v0.8zM14.9 20.6c0 0.1 0 0.2-0.1 0.3s-0.2 0.2-0.3 0.2h-3.3v-0.8h3.6l0.1 0.3zM11.2 19.5v-2h2.9l0.5 2h-3.4zM17.2 16.8h-5.9v-2.4h5.9v2.4zM17.2 12.8v0.8h-5.9v-3.6c0-0.7-0.5-1.2-1.2-1.2h-8v-5.9c0-0.7 0.5-1.2 1.2-1.2h17.5c0.7 0 1.2 0.5 1.2 1.2v8.7h-3.6c-0.7 0-1.2 0.5-1.2 1.2zM23.1 21.9c0 0.2-0.2 0.4-0.4 0.4h-4.4c-0.2 0-0.4-0.2-0.4-0.4v-0.8h5.2c0 0 0 0.8 0 0.8zM23.2 20.3h-5.2v-5.9h5.2v5.9zM23.2 13.6h-5.2v-0.8c0-0.2 0.2-0.4 0.4-0.4h4.4c0.2 0 0.4 0.2 0.4 0.4 0 0 0 0.8 0 0.8z"></path>
<path fill="#234d7e" d="M2.243 17.316l1.556-1.556 0.566 0.566-1.556 1.556-0.566-0.566z"></path>
<path fill="#234d7e" d="M3.793 18.502l4.738-4.738 0.566 0.566-4.738 4.738-0.566-0.566z"></path>
<path fill="#234d7e" d="M4.633 14.934l2.404-2.404 0.566 0.566-2.404 2.404-0.566-0.566z"></path>
<path fill="#234d7e" d="M18.808 17.317l1.98-1.98 0.566 0.566-1.98 1.98-0.566-0.566z"></path>
<path fill="#234d7e" d="M19.609 18.923l1.98-1.98 0.566 0.566-1.98 1.98-0.566-0.566z"></path>
<path fill="#234d7e" d="M10.523 7.701l2.404-2.404 0.566 0.566-2.404 2.404-0.566-0.566z"></path>
<path fill="#234d7e" d="M14.119 7.045l2.404-2.404 0.566 0.566-2.404 2.404-0.566-0.566z"></path>
<path fill="#234d7e" d="M11.747 9.285l1.556-1.556 0.566 0.566-1.556 1.556-0.566-0.566z"></path>
<path fill="#234d7e" d="M13.744 4.611l1.556-1.556 0.566 0.566-1.556 1.556-0.566-0.566z"></path>
<path fill="#234d7e" d="M2.9 2.5h0.8v0.8h-0.8v-0.8z"></path>
<path fill="#234d7e" d="M4.5 2.5h0.8v0.8h-0.8v-0.8z"></path>
<path fill="#234d7e" d="M6.1 2.5h0.8v0.8h-0.8v-0.8z"></path>
</svg>
<svg id="icon-Home-Steps-Test" width="24" height="24" viewBox="0 0 24 24" x="0" y="72">
<path fill="#234d7e" d="M9.7 4.2c-0.1-0.1-0.4-0.1-0.5 0l-0.8 0.9-0.5-0.5c-0.1-0.1-0.4-0.1-0.5 0s-0.1 0.4 0 0.5l0.7 0.7c0.1 0.1 0.4 0.1 0.5 0l1.1-1.1c0.1-0.1 0.1-0.3 0-0.5z"></path>
<path fill="#234d7e" d="M9.7 7.4c-0.1-0.1-0.4-0.1-0.5 0l-0.8 0.8-0.5-0.5c-0.1-0.1-0.4-0.1-0.5 0s-0.1 0.4 0 0.5l0.7 0.7c0.1 0.1 0.4 0.1 0.5 0l1.1-1.1c0.1-0.1 0.1-0.3 0-0.4z"></path>
<path fill="#234d7e" d="M9.7 10.6c-0.1-0.1-0.4-0.1-0.5 0l-0.8 0.8-0.5-0.5c-0.1-0.1-0.4-0.1-0.5 0s-0.1 0.4 0 0.5l0.7 0.7c0.1 0.1 0.4 0.1 0.5 0l1.1-1.1c0.1-0.1 0.1-0.3 0-0.4z"></path>
<path fill="#234d7e" d="M23.3 20.8h-1.2c0.3-0.3 0.5-0.8 0.5-1.3v-5c0-0.2-0.2-0.3-0.3-0.3-0.2 0-0.3 0.2-0.3 0.3v5c0 0.6-0.4 1.1-1 1.3h-17.8c-0.6-0.1-1-0.6-1-1.3v-12.2c0-0.7 0.5-1.3 1.2-1.3h1.9v0.7h-1.7c-0.4 0-0.6 0.3-0.6 0.6v11.9c0 0.4 0.3 0.6 0.6 0.6h16.9c0.4 0 0.6-0.3 0.6-0.6v-11.8c0-0.4-0.3-0.6-0.6-0.6h-1.8v-0.8h1.9c0.7 0 1.3 0.6 1.3 1.3v5.5c0 0.2 0.2 0.3 0.3 0.3 0.2 0 0.3-0.2 0.3-0.3v-5.5c0-1.1-0.9-2-2-2h-1.9v-4.2c0-0.5-0.4-1-1-1h-4.9c-0.2 0-0.3 0.2-0.3 0.3s0.2 0.3 0.3 0.3h4.9c0.1 0 0.3 0.1 0.3 0.3v16.1c0 0.1-0.1 0.3-0.3 0.3h-11.3c-0.1 0-0.3-0.1-0.3-0.3 0-0.5 0-13.1 0-13.6h1.7c0.5 0 1-0.4 1-1v-1.7h2.5c0.2 0 0.3-0.2 0.3-0.3s-0.2-0.3-0.3-0.3h-2.8c-0.1 0-0.2 0-0.2 0.1l-2.8 2.6c-0.1 0.1-0.1 0.2-0.1 0.3v2.2h-1.9c-1.1 0-2 0.9-2 2v12.2c0 0.5 0.2 0.9 0.5 1.3h-1.2c-0.3 0-0.6 0.3-0.6 0.6v0.9c0 0.8 0.7 1.5 1.6 1.5h20.6c0.9 0 1.6-0.7 1.6-1.6v-0.9c0-0.3-0.3-0.6-0.6-0.6zM8 1.3v1.3c0 0.1-0.1 0.3-0.3 0.3h-1.2l1.5-1.6zM6.3 18.1h11.5c0.5 0 0.9-0.4 0.9-0.9v-9.7h1.7v11.8h-16.8v-11.8h1.7v9.6c0 0.5 0.4 1 1 1zM9 21.4h6v0.3c0 0.1-0.1 0.2-0.2 0.2h-5.6c-0.1 0-0.2-0.1-0.2-0.2v-0.3zM23.2 22.3c0 0.5-0.4 0.9-0.9 0.9h-20.6c-0.5 0-0.9-0.4-0.9-0.9v-0.9h7.5v0.3c0 0.5 0.4 0.9 0.9 0.9h5.6c0.5 0 0.9-0.4 0.9-0.9v-0.3h7.5c0 0 0 0.9 0 0.9z"></path>
<path fill="#234d7e" d="M16.6 4.1h-5.7c-0.2 0-0.3 0.2-0.3 0.3 0 0.2 0.2 0.3 0.3 0.3h5.7c0.2 0 0.3-0.2 0.3-0.3 0-0.2-0.1-0.3-0.3-0.3z"></path>
<path fill="#234d7e" d="M16.6 5.4h-5.7c-0.2 0-0.3 0.2-0.3 0.3 0 0.2 0.2 0.3 0.3 0.3h5.7c0.2 0 0.3-0.2 0.3-0.3s-0.1-0.3-0.3-0.3z"></path>
<path fill="#234d7e" d="M16.6 7.3h-5.7c-0.2 0-0.3 0.2-0.3 0.3 0 0.2 0.2 0.3 0.3 0.3h5.7c0.2 0 0.3-0.2 0.3-0.3 0-0.2-0.1-0.3-0.3-0.3z"></path>
<path fill="#234d7e" d="M16.6 8.6h-5.7c-0.2 0-0.3 0.2-0.3 0.3 0 0.2 0.2 0.3 0.3 0.3h5.7c0.2 0 0.3-0.2 0.3-0.3s-0.1-0.3-0.3-0.3z"></path>
<path fill="#234d7e" d="M16.6 10.5h-5.7c-0.2 0-0.3 0.2-0.3 0.3 0 0.2 0.2 0.3 0.3 0.3h5.7c0.2 0 0.3-0.2 0.3-0.3 0-0.2-0.1-0.3-0.3-0.3z"></path>
<path fill="#234d7e" d="M16.6 11.8h-5.7c-0.2 0-0.3 0.2-0.3 0.3 0 0.2 0.2 0.3 0.3 0.3h5.7c0.2 0 0.3-0.2 0.3-0.3s-0.1-0.3-0.3-0.3z"></path>
<path fill="#234d7e" d="M9.2 13.8l-0.8 0.8-0.5-0.5c-0.1-0.1-0.4-0.1-0.5 0s-0.1 0.4 0 0.5l0.7 0.7c0.1 0.1 0.4 0.1 0.5 0l1.1-1.1c0.1-0.1 0.1-0.4 0-0.5s-0.3-0.1-0.5 0.1z"></path>
<path fill="#234d7e" d="M16.6 13.7h-5.7c-0.2 0-0.3 0.2-0.3 0.3s0.2 0.3 0.3 0.3h5.7c0.2 0 0.3-0.2 0.3-0.3s-0.1-0.3-0.3-0.3z"></path>
<path fill="#234d7e" d="M16.6 15.1h-5.7c-0.2 0-0.3 0.2-0.3 0.3s0.2 0.3 0.3 0.3h5.7c0.2 0 0.3-0.2 0.3-0.3s-0.1-0.3-0.3-0.3z"></path>
</svg>
<svg id="icon-Home-Steps-UI" width="24" height="24" viewBox="0 0 24 24" x="24" y="72">
<path fill="#234d7e" d="M15.3 16.8c0 0.276-0.224 0.5-0.5 0.5s-0.5-0.224-0.5-0.5c0-0.276 0.224-0.5 0.5-0.5s0.5 0.224 0.5 0.5z"></path>
<path fill="#234d7e" d="M21.5 0.2h-19.2c-1.3 0-2.3 1-2.3 2.3v14.2c0 1.3 1 2.3 2.3 2.3h7.3v2h-0.4c-0.6 0-1.2 0.2-1.6 0.7-0.4 0.4-0.7 1-0.7 1.6 0 0.3 0.2 0.5 0.5 0.5h9.3c0.3 0 0.5-0.2 0.5-0.5 0-1.3-1-2.3-2.3-2.3h-0.5v-2h7.3c1.3 0 2.3-1 2.3-2.3v-14.2c-0.2-1.3-1.2-2.3-2.5-2.3zM14.8 22.2c0.6-0.1 1.1 0.3 1.3 0.9h-8.3c0.2-0.3 0.2-0.4 0.4-0.6 0.3-0.3 0.6-0.4 1-0.4h5.6v0.1zM10.5 21.2v-2.2h2.8v2.1h-2.8v0.1zM23 16.7c0 0.8-0.7 1.4-1.4 1.4h-19.3c-0.6-0.1-1.3-0.6-1.3-1.4v-1.4h22v1.4zM4.3 7l1.1-2.2 1.1 2.2h-2.2zM6.8 7.8v6.5h-0.8v-6.5h0.8zM5 7.8v6.5h-1v-6.5h1zM11.2 12.5c0.1-1.3 0.2-2.3 0.3-2.9 0.1 0.1 0.4 0.1 0.6 0.1s0.3 0 0.5-0.1c0.1 0.6 0.2 1.5 0.3 2.9h-1.7zM12.8 13.5c0 0.3 0 0.6 0 0.9h-1.8c0-0.4 0-0.6 0-0.9h1.8zM12 8.8c-1.1 0-1.7-1.2-1.2-2.1l1.2-2.2 1.2 2.1c0.6 1.1-0.2 2.2-1.2 2.2zM19.3 6h0.5v1.4h-0.5c-0.3 0-0.5 0.2-0.5 0.5s0.2 0.5 0.5 0.5h0.5v1.4h-0.5c-0.3 0-0.5 0.2-0.5 0.5s0.2 0.5 0.5 0.5h0.5v1.9h-0.5c-0.3 0-0.5 0.2-0.5 0.5s0.2 0.5 0.5 0.5h0.5v0.9h-2.8v-10.4h2.8v0.8h-0.5c-0.1 0-0.3 0.3-0.3 0.5s0.2 0.5 0.3 0.5zM23 14.3h-2.1v-10.6c0-0.3-0.2-0.5-0.5-0.5h-3.7c-0.3 0-0.5 0.2-0.5 0.5v10.7h-2.3c0-0.5 0-1 0-1.4-0.1-1.9-0.3-3.2-0.4-3.7 1-0.7 1.2-2 0.6-3l-1.6-2.8c-0.1-0.1-0.2-0.2-0.4-0.2s-0.3 0.1-0.4 0.2l-1.7 2.8c-0.6 1-0.4 2.2 0.5 2.9-0.1 0.6-0.3 1.9-0.4 3.8 0 0.5 0 0.9 0 1.4h-2.3v-7c0-0.1 0-0.1 0-0.2l-2-3.7c0-0.2-0.1-0.2-0.3-0.2s-0.3 0-0.5 0.2l-1.8 3.7c0 0.1 0 0.1 0 0.2v7h-2.2v-11.9c0-0.7 0.7-1.5 1.3-1.5h19.2c0.8 0 1.5 0.8 1.5 1.5v11.8z"></path>
<path fill="#234d7e" d="M10 17.3h2.8c0.3 0 0.5-0.2 0.5-0.5s-0.2-0.5-0.5-0.5h-2.8c-0.3 0-0.5 0.2-0.5 0.5s0.3 0.5 0.5 0.5z"></path>
</svg>
<svg id="icon-Job-Developer" width="24" height="24" viewBox="0 0 24 24" x="48" y="72">
<path fill="#234d7e" d="M23.5 17.4h-1.2v-12.6c0-0.8-0.6-1.4-1.4-1.4h-17.9c-0.8 0-1.4 0.6-1.4 1.4v12.6h-1.1c-0.2 0-0.4 0.2-0.4 0.4v0.8c0 1.1 0.9 2 2 2h13.3c0.2 0 0.4-0.2 0.4-0.4s-0.2-0.4-0.4-0.4h-13.3c-0.7 0-1.3-0.6-1.3-1.3v-0.4h8.3c0 0.7 0.6 1.2 1.3 1.2h3.2c0.7 0 1.2-0.6 1.3-1.2h8.3v0.4c0 0.7-0.6 1.3-1.3 1.3h-4.7c-0.2 0-0.4 0.2-0.4 0.4s0.2 0.4 0.4 0.4h4.7c1.1 0 2-0.9 2-2v-0.8c0-0.2-0.2-0.4-0.4-0.4zM13.6 18.7h-3.2c-0.3 0-0.5-0.2-0.6-0.5h4.3c0 0.2-0.2 0.5-0.5 0.5zM21.6 17.4h-19.3v-12.6c0-0.4 0.3-0.7 0.7-0.7h17.9c0.4 0 0.7 0.3 0.7 0.7v12.6z"></path>
<path fill="#234d7e" d="M6.9 4.7c-0.2 0-0.3 0.2-0.3 0.3 0 0.2 0.2 0.4 0.4 0.4h13.3v10.7h-16.7v-10.7h1.7c0.2 0 0.4-0.2 0.4-0.4s-0.2-0.4-0.4-0.4h-2c-0.2 0.1-0.4 0.3-0.4 0.4v11.4c0 0.2 0.2 0.4 0.4 0.4h17.4c0.2 0 0.4-0.2 0.4-0.4v-11.4c-0.1-0.1-0.3-0.3-0.5-0.3h-13.7z"></path>
</svg>
<svg id="icon-Job-Digital-Marketing" width="24" height="24" viewBox="0 0 24 24" x="72" y="72">
<path fill="#234d7e" d="M6.2 11.8c0 0.2 0.2 0.3 0.3 0.3 0.2 0 0.3-0.2 0.3-0.3h0.2v0.1c0 0.5 0.4 1 1 1v0 1.3c0 0.2 0.2 0.3 0.3 0.3 0.2 0 0.3-0.2 0.3-0.3v-1.3h1.6v1l-0.5 0.2c-0.3 0.1-0.4 0.4-0.4 0.6v1.4c0 0.1-0.1 0.2-0.2 0.2h-0.1c-0.1 0-0.2-0.1-0.2-0.2v-0.6c0-0.2-0.2-0.3-0.3-0.3s-0.5 0.3-0.5 0.5v0.6c0 0.6 0.5 1 1 1h0.2c0.5 0 0.9-0.4 0.9-0.9v-1.4l0.5-0.2c0.3-0.1 0.4-0.4 0.4-0.6v-1h0.7l1.5 0.6v0.1c0 0.2 0.2 0.3 0.3 0.3 0.2 0 0.3-0.1 0.3-0.3l1.9 0.8v0.2c0 0.2 0.2 0.3 0.3 0.3 0.2 0 0.3-0.2 0.3-0.3v-9.1c0.1-0.2 0-0.4-0.2-0.4s-0.3 0.2-0.3 0.3v0.2l-1.9 0.8c0-0.2-0.2-0.3-0.3-0.3-0.2 0-0.3 0.2-0.3 0.3v0.2l-1.5 0.6c-0.5 0-3.2 0-3.7 0s-1 0.4-1 1v0.1h-0.3c0-0.2-0.2-0.3-0.3-0.3-0.2 0-0.3 0.2-0.3 0.3-0.7 0.1-1.3 0.8-1.3 1.6s0.6 1.5 1.3 1.6zM13.8 7.4l1.9-0.8v7.3l-1.9-0.8v-5.7zM12 8.2l1-0.4v5.1l-1-0.5c0-0.5 0-3.8 0-4.2zM8.9 8.4l1.3-0.1v0.4c0 0.1-0.1 0.2-0.2 0.2h-1c0 0.1-0.1 0-0.1-0.1v-0.4zM7.7 8.6c0-0.2 0.1-0.3 0.3-0.3h0.2v0.4c0 0.5 0.4 0.9 0.9 0.9h0.9c0.5 0 0.9-0.4 0.9-0.9v-0.4h0.5c0 0.5 0 3.5 0 4h-3.4c-0.2 0-0.3-0.1-0.3-0.3 0-1 0-2.3 0-3.4zM6.5 9.4h0.5c0 0.2 0 1.4 0 1.9h-0.5v-1.9zM5.9 9.4v1.8c-0.3-0.1-0.6-0.5-0.6-0.9s0.2-0.8 0.6-0.9z"></path>
<path fill="#234d7e" d="M17.4 10.3c0 0.2 0.2 0.3 0.3 0.3h1.3c0.2 0 0.3-0.2 0.3-0.3 0.1-0.2-0.1-0.3-0.3-0.3h-1.3c-0.2 0-0.3 0.2-0.3 0.3z"></path>
<path fill="#234d7e" d="M17.3 8.5c0.1 0 0.2 0 0.2-0.1l0.9-0.9c0.1-0.1 0.1-0.4 0-0.5s-0.4-0.1-0.5 0l-0.9 0.9c0 0.1 0 0.4 0 0.5 0 0 0.2 0.1 0.3 0.1z"></path>
<path fill="#234d7e" d="M17.9 13.6c0.1 0.1 0.2 0.1 0.2 0.1 0.1 0 0.2 0 0.2-0.1 0.1-0.1 0.1-0.4 0-0.5l-0.8-0.9c-0.1-0.1-0.4-0.1-0.5 0s-0.1 0.4 0 0.5l0.9 0.9z"></path>
<path fill="#234d7e" d="M22.8 17.5h-0.5v-13.2c0-0.7-0.5-1.2-1.2-1.2h-14.3c-0.2 0-0.3 0.2-0.3 0.3s0.2 0.3 0.3 0.3h14.2c0.3 0 0.5 0.2 0.5 0.5v13.3h-0.7v-12.7c0-0.2-0.2-0.3-0.3-0.3h-17.1c-0.2 0-0.4 0.2-0.4 0.3v12.7h-0.6v-13.2c0-0.3 0.2-0.5 0.5-0.5h2.6c0.2 0 0.3-0.2 0.3-0.3s-0.2-0.4-0.3-0.4h-2.7c-0.8 0-1.3 0.5-1.3 1.2v13.3h-0.3c-0.6 0-1.1 0.5-1.1 1.1v1.1c0 0.6 0.5 1.1 1.1 1.1h17.4c0.2 0 0.3-0.2 0.3-0.3 0-0.2-0.2-0.3-0.3-0.3h-17.4c-0.2 0-0.4-0.2-0.4-0.4v-1.1c0-0.2 0.2-0.4 0.4-0.4h8.2v0.5c0 0.4 0.3 0.7 0.7 0.7h3.8c0.4 0 0.7-0.3 0.7-0.7v-0.5h8.2c0.2 0 0.4 0.2 0.4 0.4v1.1c0 0.2-0.2 0.4-0.4 0.4h-2.8c-0.2 0-0.3 0.2-0.3 0.3 0 0.2 0.2 0.3 0.3 0.3h2.9c0.6 0 1.1-0.5 1.1-1.1v-1.1c-0.1-0.7-0.6-1.2-1.2-1.2zM13.9 18.7h-3.9v-0.5h3.8l0.1 0.5zM20.3 17.6h-16.5v-12.4h16.5v12.4z"></path>
</svg>
<svg id="icon-Job-Graphic-Designer" width="24" height="24" viewBox="0 0 24 24" x="96" y="72">
<path fill="#234d7e" d="M21 15.6v-10.5h-0.1c0-0.2-0.2-0.4-0.4-0.4h-17c-0.2 0-0.5 0.2-0.5 0.4v10.5c0 0.2 0.3 0.4 0.5 0.4h17.1c0.2 0 0.4-0.2 0.4-0.4zM20.2 15.3h-16.3v-9.8h16.3c0 0 0 9.8 0 9.8z"></path>
<path fill="#234d7e" d="M23.5 17.1h-0.6v-12.1c0-1.3-1.1-2.4-2.4-2.4h-17c-1.3 0-2.5 1.1-2.5 2.4v12.1h-0.5c-0.2 0-0.4 0.2-0.4 0.4v1.5c0 0.6 0.2 1.2 0.7 1.7 0.4 0.4 1 0.7 1.7 0.7h19.1c0.6 0 1.2-0.2 1.7-0.7 0.4-0.4 0.7-1 0.7-1.7v-1.5c-0.1-0.2-0.3-0.4-0.5-0.4zM1.9 5c0-0.9 0.7-1.6 1.6-1.6h17c0.9 0 1.5 0.7 1.5 1.6v12.1h-7.2c-0.1 0-0.2 0.1-0.3 0.1l-0.4 0.4c-0.3 0.3-0.7 0.5-1.2 0.5h-2c-0.4 0-0.9-0.2-1.2-0.5l-0.4-0.4c-0.1-0.1-0.2-0.1-0.3-0.1h-7.1v-12.1zM22.5 20.1c-0.3 0.3-0.7 0.5-1.1 0.5h-19c-0.4 0-0.8-0.2-1.1-0.5s-0.4-0.7-0.4-1.1v-1.2h8l0.3 0.3c0.4 0.5 1.1 0.8 1.7 0.8h2.1c0.7 0 1.3-0.3 1.7-0.8l0.3-0.3h8v1.2c0 0.4-0.1 0.8-0.5 1.1z"></path>
<path fill="#234d7e" d="M8 14.9h1c0.2 0 0.4-0.2 0.4-0.4v-0.1h4.9v0.1c0 0.2 0.2 0.4 0.4 0.4h1c0.2 0 0.4-0.2 0.4-0.4v-1c0-0.1 0-0.2-0.1-0.3s-0.2-0.1-0.3-0.1h-0.1v-5.3h0.1c0.1 0 0.2 0 0.3-0.1s0.1-0.2 0.1-0.3v-1c0.1-0.2-0.1-0.4-0.3-0.4h-1c-0.2 0-0.4 0.2-0.4 0.4v0.1h-4.9v-0.1c0-0.2-0.1-0.4-0.3-0.4h-1c-0.3 0-0.4 0.2-0.4 0.4v1c0 0.1 0 0.2 0.1 0.3 0 0.1 0.1 0.1 0.1 0.1h0.1v5.3h-0.1c-0.1 0-0.2 0-0.3 0.1s-0.1 0.2-0.1 0.3v1c0.2 0.2 0.3 0.4 0.4 0.4zM15.5 14.1h-0.2v-0.2h0.2v0.2zM15.2 6.8h0.2v0.2h-0.2v-0.2zM9 7.8h0.2c0.1 0 0.2 0 0.3-0.1s0.1-0.2 0.1-0.3v-0.1h4.9v0.1c0 0.1 0 0.2 0.1 0.3s0.2 0.1 0.3 0.1h0.1v5.3h-0.2c-0.1 0-0.2 0-0.3 0.1s-0.1 0.2-0.1 0.3v0.1h-4.9v-0.1c0-0.1 0-0.2-0.1-0.3s-0.2-0.1-0.3-0.1h-0.1v-5.3zM8.5 6.8h0.2v0.2h-0.2v-0.2zM8.5 13.9h0.2v0.2h-0.2v-0.2z"></path>
<path fill="#234d7e" d="M9.7 13.1l1.6-0.4c0.1 0 0.2-0.1 0.3-0.1l2.9-2.9c0.3-0.3 0.3-0.7 0-0.9l-0.8-0.8c-0.3-0.3-0.7-0.3-0.9 0l-2.9 2.9c-0.1 0.1-0.1 0.2-0.1 0.3l-0.4 1.6c0 0.1 0 0.2 0.1 0.3 0 0 0 0 0.2 0zM12.5 9.1l0.7 0.7-2 2-0.7-0.7 2-2zM10.3 11.9l0.2 0.2-0.3 0.1 0.1-0.3z"></path>
</svg>
<svg id="icon-Job-SEO-Specialist" width="24" height="24" viewBox="0 0 24 24" x="0" y="96">
<path fill="#234d7e" d="M2.4 21.6h0.8v0.8h-0.8v-0.8z"></path>
<path fill="#234d7e" d="M3.9 21.6h0.8v0.8h-0.8v-0.8z"></path>
<path fill="#234d7e" d="M5.5 21.6h0.8v0.8h-0.8v-0.8z"></path>
<path fill="#234d7e" d="M18.5 21.6h3.1v0.8h-3.1v-0.8z"></path>
<path fill="#234d7e" d="M23.1 20.1v-12.7c0-1.1-0.9-1.9-1.9-1.9h-1.2c0-3-2.4-5.4-5.4-5.4s-5.3 2.4-5.3 5.4h-6.5c-1.1 0-1.9 0.9-1.9 1.9v12.7h-0.8v1.9c0 1 0.9 1.9 1.9 1.9h20c1.1 0 1.9-0.9 1.9-1.9v-1.9h-0.8zM20 6.2h1.2c0.6 0 1.2 0.5 1.2 1.2v12.7h-0.8v-12.3c0-0.4-0.3-0.8-0.8-0.8h-1c0.1-0.2 0.2-0.5 0.2-0.8zM19.3 5.5c0 1.9-1.2 3.5-2.8 4.2l-1.4-4.1 3.1-3.1c0.7 0.8 1.1 1.8 1.1 3zM14.7 0.9c1.1 0 2.2 0.4 3 1.1l-3.1 3-4-1.7c0.8-1.4 2.3-2.4 4.1-2.4zM10.3 4.1l4.1 1.7 1.4 4.2c-0.3 0.1-0.7 0.1-1.1 0.1-2.5 0-4.6-2.1-4.6-4.6 0-0.5 0.1-1 0.2-1.4zM1.6 7.4c0-0.6 0.5-1.2 1.2-1.2h6.6c0 0.3 0.1 0.5 0.2 0.8h-6.4c-0.5 0-0.8 0.4-0.8 0.8v12.3h-0.8v-12.7zM23.1 22c0 0.6-0.5 1.2-1.2 1.2h-19.9c-0.6 0-1.2-0.5-1.2-1.2v-1.2h7.9c0.6 0.5 1.3 0.8 2 0.8h2.4c0.7 0 1.5-0.3 2-0.8h4.8v-0.8h-5.1l-0.1 0.1c-0.4 0.4-1 0.7-1.6 0.7h-2.4c-0.6 0-1.2-0.2-1.6-0.7l-0.1-0.1h-5.8v-12.2h6.7c0.9 1.8 2.7 3.1 4.8 3.1s4-1.3 4.8-3.1h1.3v13.1h2.3c0 0 0 1.1 0 1.1z"></path>
<path fill="#234d7e" d="M18.9 16.2c-0.2 0-0.5 0.1-0.6 0.2l-1.3-1c0-0.1 0.1-0.2 0.1-0.3 0-0.6-0.5-1.2-1.2-1.2-0.6 0-1.2 0.5-1.2 1.2 0 0.1 0 0.3 0.1 0.4l-2.1 1.7c-0.3-0.1-0.5-0.2-0.7-0.2-0.3 0-0.5 0.1-0.7 0.2l-1.7-1.1c0-0.1 0-0.2 0-0.3 0-0.6-0.5-1.2-1.2-1.2s-1.2 0.5-1.2 1.2c0 0.1 0 0.2 0 0.3l-1.7 1.1c0.1-0.1-0.2-0.2-0.4-0.2-0.6 0-1.2 0.5-1.2 1.2s0.5 1.2 1.2 1.2 1.2-0.5 1.2-1.2c0-0.1 0-0.2 0-0.3l1.7-1.1c0.1 0.1 0.3 0.2 0.5 0.2s0.5-0.1 0.7-0.2l1.7 1.1c0 0.1 0 0.2 0 0.3 0 0.6 0.5 1.2 1.2 1.2s1.2-0.5 1.2-1.2c0-0.1 0-0.3-0.1-0.4l2.1-1.7c0.2 0.1 0.4 0.2 0.6 0.2s0.5-0.1 0.6-0.2l1.3 1c0 0.1-0.1 0.2-0.1 0.3 0 0.6 0.5 1.2 1.2 1.2s1.2-0.5 1.2-1.2c0-0.7-0.6-1.2-1.2-1.2zM5.1 18.5c-0.2 0-0.4-0.2-0.4-0.4s0.2-0.4 0.4-0.4c0.2 0 0.4 0.2 0.4 0.4s-0.2 0.4-0.4 0.4zM8.5 16.2c-0.2 0-0.4-0.2-0.4-0.4s0.2-0.4 0.4-0.4 0.4 0.2 0.4 0.4c0 0.2-0.1 0.4-0.4 0.4zM12 18.5c-0.2 0-0.4-0.2-0.4-0.4s0.2-0.4 0.4-0.4 0.4 0.2 0.4 0.4-0.2 0.4-0.4 0.4zM15.8 15.5c-0.2 0-0.4-0.2-0.4-0.4s0.2-0.4 0.4-0.4 0.4 0.2 0.4 0.4-0.1 0.4-0.4 0.4zM18.9 17.8c-0.2 0-0.4-0.2-0.4-0.4s0.2-0.4 0.4-0.4c0.2 0 0.4 0.2 0.4 0.4s-0.2 0.4-0.4 0.4z"></path>
<path fill="#234d7e" d="M10 8.5h-6.1v5.4h6.1v-5.4zM9.3 13.2h-4.6v-3.9h4.6c0 0 0 3.9 0 3.9z"></path>
<path fill="#234d7e" d="M5.5 10.1h3.1v0.8h-3.1v-0.8z"></path>
<path fill="#234d7e" d="M5.5 11.6h3.1v0.8h-3.1v-0.8z"></path>
<path fill="#234d7e" d="M10.8 12.4h0.8v0.8h-0.8v-0.8z"></path>
<path fill="#234d7e" d="M12.4 12.4h7.7v0.8h-7.7v-0.8z"></path>
</svg>
<svg id="icon-Job-UI-UX" width="24" height="24" viewBox="0 0 24 24" x="24" y="96">
<path fill="#234d7e" d="M22.4 2.2h-20.8c-0.8 0-1.5 0.7-1.5 1.5v13.1c0 0.8 0.7 1.5 1.5 1.5h7.9l-0.5 1.6h-1.2c-0.2 0-0.4 0.2-0.4 0.4v0.7h-3.5c-0.2 0-0.4 0.2-0.4 0.4s0.2 0.4 0.4 0.4h16.9c0.2 0 0.4-0.2 0.4-0.4s-0.2-0.4-0.4-0.4h-4.2v-0.8c0-0.2-0.2-0.4-0.4-0.4h-1.2l-0.5-1.5h7.9c0.8 0 1.5-0.7 1.5-1.5v-13.1c0-0.8-0.7-1.5-1.5-1.5zM15.8 20.6v0.4h-7.6v-0.4h7.6zM9.8 19.9l0.5-1.5h3.3l0.5 1.5h-4.3zM23.1 16.8c0 0.4-0.3 0.8-0.8 0.8h-20.7c-0.4 0-0.8-0.3-0.8-0.8v-0.8h22.3c0 0 0 0.8 0 0.8zM6.6 11.8l-0.1 3.5h-0.5l-0.1-3.5h0.7zM5.9 11l0.3-1.5h0.1l0.2 1.5h-0.6zM6.2 8.7c-0.4 0-0.8-0.5-0.8-1.2 0-0.4 0.4-1 0.8-1.4 0.4 0.5 0.8 1.1 0.8 1.5 0 0.6-0.3 1.1-0.8 1.1zM10.4 8v0.4h-1.5v-0.3l0.1-0.1h1.4zM9.4 7.2l0.3-0.7 0.3 0.7h-0.6zM10.5 9.1v6.1h-1.6v-6.1h1.6zM13.9 7.6h1.2v0.8h-0.4c-0.2 0-0.4 0.2-0.4 0.4s0.2 0.4 0.4 0.4h0.4v0.8h-1.2c-0.2 0-0.4 0.2-0.4 0.4s0.2 0.4 0.4 0.4h1.2v0.8h-0.4c-0.2 0-0.4 0.2-0.4 0.4s0.2 0.4 0.4 0.4h0.4v0.6h-1.2c-0.2 0-0.4 0.2-0.4 0.4s0.2 0.4 0.4 0.4h1.2v1.5h-2.7v-9.2h2.7v0.8h-1.2c-0.2 0-0.4 0.2-0.4 0.4s0.2 0.3 0.4 0.3zM18.5 12.2v3h-1.5v-3h1.5zM17 11.4v-0.3l0.8-1.5 0.8 1.5v0.3h-1.6zM23.1 15.3h-3.8v-4.3c0-0.1 0-0.1 0-0.2l-1.2-2.3c-0.1-0.2-0.3-0.3-0.5-0.2-0.1 0-0.1 0.1-0.2 0.2l-1.2 2.3c0 0.1 0 0.1 0 0.2v4.2h-0.4v-9.5c0-0.2-0.2-0.4-0.4-0.4h-3.4c-0.2 0-0.4 0.2-0.4 0.4v9.6h-0.4v-7.3c0-0.1 0-0.1 0-0.2l-1.2-2.3c-0.1-0.2-0.3-0.3-0.5-0.2-0.1 0-0.1 0.1-0.2 0.2l-1.1 2.3c0 0.1 0 0.1 0 0.2v7.2h-1l0.2-3.8-0.4-2.2c0.4-0.3 0.7-0.9 0.7-1.6 0-1-1.1-2.1-1.3-2.2 0-0.2-0.3-0.2-0.4 0-0.1 0.1-1.3 1.2-1.3 2.2 0 0.7 0.3 1.3 0.7 1.6l-0.4 2.1 0.2 3.8h-4.3v-11.4c0-0.4 0.3-0.7 0.7-0.7h20.7c0.4 0 0.8 0.3 0.8 0.8v11.5z"></path>
<path fill="#234d7e" d="M2 17.2h2.3c0.2 0 0.4-0.2 0.4-0.4s-0.2-0.4-0.4-0.4h-2.3c-0.2 0-0.4 0.2-0.4 0.4s0.2 0.4 0.4 0.4z"></path>
<path fill="#234d7e" d="M5.5 17.2h0.4c0.2 0 0.4-0.2 0.4-0.4s-0.2-0.4-0.4-0.4h-0.4c-0.2 0-0.4 0.2-0.4 0.4s0.2 0.4 0.4 0.4z"></path>
<path fill="#234d7e" d="M9.7 14.5c0.2 0 0.4-0.2 0.4-0.4v-4.2c0-0.2-0.2-0.4-0.4-0.4s-0.4 0.2-0.4 0.4v4.2c0 0.2 0.2 0.4 0.4 0.4z"></path>
<path fill="#234d7e" d="M17.8 14.6c0.2 0 0.4-0.2 0.4-0.4v-1.2c-0.1-0.3-0.2-0.4-0.4-0.4s-0.4 0.2-0.4 0.4v1.2c0 0.2 0.2 0.4 0.4 0.4z"></path>
</svg>
<svg id="icon-next" width="24" height="24" viewBox="0 0 24 24" x="48" y="96">
<path fill="#1694ab" d="M6.3 23.9c-0.3 0-0.5-0.2-0.5-0.5 0-0.1 0.1-0.3 0.2-0.4l11-11-11.1-11c-0.2-0.2-0.2-0.5 0-0.7 0.2-0.3 0.6-0.3 0.8 0l11.4 11.4c0.2 0.2 0.2 0.5 0 0.7l-11.4 11.3c-0.1 0.1-0.3 0.2-0.4 0.2z"></path>
</svg>
<svg id="icon-Social-Instagram" width="24" height="24" viewBox="0 0 24 24" x="72" y="96">
<path fill="#fff" d="M23.7 7.1c-0.1-1.3-0.3-2.1-0.6-2.9s-0.8-1.5-1.4-2.1-1.3-1.1-2.1-1.4-1.6-0.5-2.9-0.6c-1.3-0.1-1.7-0.1-4.9-0.1s-3.6 0-4.9 0.1c-1.2 0.1-2 0.3-2.8 0.6s-1.5 0.8-2.1 1.4-1.1 1.3-1.4 2.1-0.5 1.6-0.5 2.9c-0.1 1.3-0.1 1.7-0.1 4.9s0 3.6 0.1 4.9 0.3 2.1 0.6 2.9 0.8 1.5 1.4 2.1 1.3 1.1 2.1 1.4 1.6 0.5 2.9 0.6 1.7 0.1 4.9 0.1 3.6 0 4.9-0.1 2.1-0.3 2.9-0.6c1.6-0.6 2.9-1.9 3.5-3.5 0.3-0.8 0.5-1.6 0.6-2.9s0.1-1.7 0.1-4.9-0.2-3.6-0.3-4.9zM21.6 16.8c-0.1 1.2-0.2 1.8-0.4 2.2-0.4 1-1.2 1.9-2.3 2.3-0.4 0.2-1.1 0.4-2.2 0.4-1.3 0.1-1.6 0.1-4.8 0.1s-3.6 0-4.8-0.1-1.8-0.3-2.2-0.4c-0.5-0.2-1-0.5-1.4-0.9s-0.7-0.9-0.9-1.4c-0.2-0.4-0.4-1.1-0.4-2.2-0.1-1.3-0.1-1.6-0.1-4.8s0-3.6 0.1-4.8c0.1-1.2 0.3-1.8 0.4-2.2 0.2-0.5 0.5-1 0.9-1.4s0.9-0.7 1.4-0.9c0.4-0.1 1-0.3 2.2-0.4 1.3 0 1.6 0 4.8 0s3.6 0 4.8 0.1c1.2 0 1.8 0.2 2.2 0.3 0.5 0.2 1 0.5 1.4 0.9s0.7 0.9 0.9 1.4c0.2 0.4 0.4 1.1 0.4 2.2 0.1 1.3 0.1 1.6 0.1 4.8s-0.1 3.6-0.1 4.8z"></path>
<path fill="#fff" d="M11.9 5.9c-3.4 0-6.1 2.7-6.1 6.1s2.7 6.1 6.1 6.1 6.1-2.7 6.1-6.1-2.7-6.1-6.1-6.1zM11.9 16c-2.2 0-4-1.8-4-4s1.8-4 4-4 4 1.8 4 4-1.8 4-4 4z"></path>
<path fill="#fff" d="M18.3 4.2c-0.8 0-1.4 0.6-1.4 1.4s0.6 1.4 1.4 1.4 1.4-0.6 1.4-1.4c0-0.7-0.7-1.4-1.4-1.4z"></path>
</svg>
<svg id="icon-Social-Linkedin" width="24" height="24" viewBox="0 0 24 24" x="96" y="96">
<path fill="#fff" d="M18 7.6c-2.4 0-4 1.3-4.7 2.6h-0.1v-2.2h-4.7v15.9h4.9v-7.9c0-2.1 0.4-4.1 3-4.1 2.5 0 2.6 2.4 2.6 4.2v7.7h4.9v-8.7c0-4.2-0.9-7.5-5.9-7.5z"></path>
<path fill="#fff" d="M0.5 8h4.9v15.9h-4.9v-15.9z"></path>
<path fill="#fff" d="M3 0.1c-1.6 0-2.9 1.3-2.9 2.9s1.3 2.8 2.9 2.8 2.8-1.3 2.8-2.8c0-1.6-1.3-2.9-2.8-2.9z"></path>
</svg>
<svg id="icon-Social-Twitter" width="24" height="24" viewBox="0 0 24 24" x="0" y="120">
<path fill="#fdffff" d="M23.9 4.6c-0.9 0.4-1.8 0.7-2.8 0.8 1-0.6 1.8-1.6 2.1-2.7-0.9 0.6-2 1-3.1 1.2-0.9-1-2.2-1.5-3.6-1.5-2.7 0-4.9 2.2-4.9 4.9 0 0.4 0 0.8 0.1 1.1-3.9-0.3-7.5-2.2-9.9-5.2-0.5 0.8-0.7 1.6-0.7 2.5 0 1.7 0.9 3.2 2.2 4.1-0.8 0-1.6-0.2-2.2-0.6 0 0 0 0 0 0.1 0 2.4 1.7 4.3 3.9 4.8-0.4 0.1-0.8 0.2-1.3 0.2-0.3 0-0.6 0-0.9-0.1 0.6 1.9 2.4 3.4 4.6 3.4-1.7 1.3-3.8 2.1-6 2.1-0.4 0-0.8 0-1.2-0.1 2.2 1.4 4.7 2.2 7.5 2.2 9 0 13.9-7.4 13.9-13.9 0-0.2 0-0.4 0-0.6 0.8-0.8 1.6-1.7 2.3-2.7z"></path>
</svg>
<svg id="icon-Social-Instagram2" width="24" height="24" viewBox="0 0 24 24" x="24" y="120">
<path fill="#234d7e" d="M23.7 7.1c-0.1-1.3-0.3-2.1-0.6-2.9s-0.8-1.5-1.4-2.1-1.3-1.1-2.1-1.4-1.6-0.5-2.9-0.6c-1.3-0.1-1.7-0.1-4.9-0.1s-3.6 0-4.9 0.1c-1.2 0.1-2 0.3-2.8 0.6s-1.5 0.8-2.1 1.4-1.1 1.3-1.4 2.1-0.5 1.6-0.5 2.9c-0.1 1.3-0.1 1.7-0.1 4.9s0 3.6 0.1 4.9 0.3 2.1 0.6 2.9 0.8 1.5 1.4 2.1 1.3 1.1 2.1 1.4 1.6 0.5 2.9 0.6 1.7 0.1 4.9 0.1 3.6 0 4.9-0.1 2.1-0.3 2.9-0.6c1.6-0.6 2.9-1.9 3.5-3.5 0.3-0.8 0.5-1.6 0.6-2.9s0.1-1.7 0.1-4.9-0.2-3.6-0.3-4.9zM21.6 16.8c-0.1 1.2-0.2 1.8-0.4 2.2-0.4 1-1.2 1.9-2.3 2.3-0.4 0.2-1.1 0.4-2.2 0.4-1.3 0.1-1.6 0.1-4.8 0.1s-3.6 0-4.8-0.1-1.8-0.3-2.2-0.4c-0.5-0.2-1-0.5-1.4-0.9s-0.7-0.9-0.9-1.4c-0.2-0.4-0.4-1.1-0.4-2.2-0.1-1.3-0.1-1.6-0.1-4.8s0-3.6 0.1-4.8c0.1-1.2 0.3-1.8 0.4-2.2 0.2-0.5 0.5-1 0.9-1.4s0.9-0.7 1.4-0.9c0.4-0.1 1-0.3 2.2-0.4 1.3 0 1.6 0 4.8 0s3.6 0 4.8 0.1c1.2 0 1.8 0.2 2.2 0.3 0.5 0.2 1 0.5 1.4 0.9s0.7 0.9 0.9 1.4c0.2 0.4 0.4 1.1 0.4 2.2 0.1 1.3 0.1 1.6 0.1 4.8s-0.1 3.6-0.1 4.8z"></path>
<path fill="#234d7e" d="M11.9 5.9c-3.4 0-6.1 2.7-6.1 6.1s2.7 6.1 6.1 6.1 6.1-2.7 6.1-6.1-2.7-6.1-6.1-6.1zM11.9 16c-2.2 0-4-1.8-4-4s1.8-4 4-4 4 1.8 4 4-1.8 4-4 4z"></path>
<path fill="#234d7e" d="M18.3 4.2c-0.8 0-1.4 0.6-1.4 1.4s0.6 1.4 1.4 1.4 1.4-0.6 1.4-1.4c0-0.7-0.7-1.4-1.4-1.4z"></path>
</svg>
<svg id="icon-Social-Linkedin2" width="24" height="24" viewBox="0 0 24 24" x="48" y="120">
<path fill="#234d7e" d="M18 7.6c-2.4 0-4 1.3-4.7 2.6h-0.1v-2.2h-4.7v15.9h4.9v-7.9c0-2.1 0.4-4.1 3-4.1 2.5 0 2.6 2.4 2.6 4.2v7.7h4.9v-8.7c0-4.2-0.9-7.5-5.9-7.5z"></path>
<path fill="#234d7e" d="M0.5 8h4.9v15.9h-4.9v-15.9z"></path>
<path fill="#234d7e" d="M3 0.1c-1.6 0-2.9 1.3-2.9 2.9s1.3 2.8 2.9 2.8 2.8-1.3 2.8-2.8c0-1.6-1.3-2.9-2.8-2.9z"></path>
</svg>
<svg id="icon-Social-Twitter2" width="24" height="24" viewBox="0 0 24 24" x="72" y="120">
<path fill="#234d7e" d="M23.9 4.6c-0.9 0.4-1.8 0.7-2.8 0.8 1-0.6 1.8-1.6 2.1-2.7-0.9 0.6-2 1-3.1 1.2-0.9-1-2.2-1.5-3.6-1.5-2.7 0-4.9 2.2-4.9 4.9 0 0.4 0 0.8 0.1 1.1-3.9-0.3-7.5-2.2-9.9-5.2-0.5 0.8-0.7 1.6-0.7 2.5 0 1.7 0.9 3.2 2.2 4.1-0.8 0-1.6-0.2-2.2-0.6 0 0 0 0 0 0.1 0 2.4 1.7 4.3 3.9 4.8-0.4 0.1-0.8 0.2-1.3 0.2-0.3 0-0.6 0-0.9-0.1 0.6 1.9 2.4 3.4 4.6 3.4-1.7 1.3-3.8 2.1-6 2.1-0.4 0-0.8 0-1.2-0.1 2.2 1.4 4.7 2.2 7.5 2.2 9 0 13.9-7.4 13.9-13.9 0-0.2 0-0.4 0-0.6 0.8-0.8 1.6-1.7 2.3-2.7z"></path>
</svg>
<svg id="icon-Social-Linkedin3" width="24" height="24" viewBox="0 0 24 24" x="96" y="120">
<path fill="#484848" d="M18 7.6c-2.4 0-4 1.3-4.7 2.6h-0.1v-2.2h-4.7v15.9h4.9v-7.9c0-2.1 0.4-4.1 3-4.1 2.5 0 2.6 2.4 2.6 4.2v7.7h4.9v-8.7c0-4.2-0.9-7.5-5.9-7.5z"></path>
<path fill="#484848" d="M0.5 8h4.9v15.9h-4.9v-15.9z"></path>
<path fill="#484848" d="M3 0.1c-1.6 0-2.9 1.3-2.9 2.9s1.3 2.8 2.9 2.8 2.8-1.3 2.8-2.8c0-1.6-1.3-2.9-2.8-2.9z"></path>
</svg>
<svg id="icon-cancel2" width="24" height="24" viewBox="0 0 24 24" x="0" y="144">
<path fill="#234d7e" d="M13.3 12l10.3-10.3c0.4-0.4 0.4-1 0-1.3-0.4-0.4-1-0.4-1.3 0l-10.3 10.3-10.3-10.3c-0.4-0.4-1-0.4-1.3 0s-0.4 1 0 1.3l10.3 10.3-10.3 10.3c-0.4 0.4-0.4 1 0 1.3 0.2 0.2 0.4 0.3 0.7 0.3s0.5-0.1 0.7-0.3l10.2-10.3 10.3 10.3c0.2 0.2 0.4 0.3 0.7 0.3 0.2 0 0.5-0.1 0.7-0.3 0.4-0.4 0.4-1 0-1.3l-10.4-10.3z"></path>
</svg>
<svg id="icon-menu" width="24" height="24" viewBox="0 0 24 24" x="24" y="144">
<path fill="#fff" d="M23 11.1h-22c-0.5 0-0.9 0.4-0.9 0.9s0.4 0.9 0.9 0.9h22c0.5 0 0.9-0.4 0.9-0.9s-0.4-0.9-0.9-0.9z"></path>
<path fill="#fff" d="M1 5.5h22c0.5 0 0.9-0.4 0.9-0.9s-0.4-1-0.9-1h-22c-0.5 0-0.9 0.4-0.9 1s0.4 0.9 0.9 0.9z"></path>
<path fill="#fff" d="M23 18.5h-22c-0.5 0-0.9 0.4-0.9 0.9s0.4 0.9 0.9 0.9h22c0.5 0 0.9-0.4 0.9-0.9s-0.4-0.9-0.9-0.9z"></path>
</svg>
</svg>
