<?xml version="1.0" encoding="utf-8"?>
<!-- Generator: Adobe Illustrator 24.0.0, SVG Export Plug-In . SVG Version: 6.00 Build 0)  -->
<svg version="1.1" id="Layer_1" xmlns="http://www.w3.org/2000/svg" xmlns:xlink="http://www.w3.org/1999/xlink" x="0px" y="0px"
	 viewBox="0 0 328 248" style="enable-background:new 0 0 328 248;" xml:space="preserve">
<style type="text/css">
	.st0{opacity:0;fill:#FFFFFF;fill-opacity:0;}
	.st1{opacity:0.3;fill:#FFFFFF;enable-background:new    ;}
	.st2{fill:#FFFFFF;}
</style>
<rect class="st0" width="328" height="248"/>
<g>
	<g>
		<g>
			<path class="st1" d="M175.9,107.3c-1.8-5.6-4.5-10.8-7.9-15.5s-7.6-8.9-12.3-12.3s-9.9-6.1-15.5-7.9c-5.4-1.7-11.2-2.7-17.2-2.7
				v48l0,0v7.6h6.8h31.6h0.2c3.9-0.1,7.5-0.3,10.7-0.9c2.2-0.3,4.2-0.8,6.2-1.3C178.3,117.1,177.4,112.1,175.9,107.3z"/>
			<path class="st2" d="M207.5,99c0.7-3.1,1.1-6.4,1.1-10c0-1.4-0.1-2.9-0.2-4.3c-0.1-2-0.5-3.9-1.1-5.8c-0.2-0.8-0.4-1.4-0.6-2
				c-1.3-3.6-3.1-6.8-5.4-9.6c0,0,0,0-0.1-0.1l0,0c-1.4-1.6-2.9-3.1-4.6-4.4c-1.3-1.2-2.6-2.3-3.9-3.3c1.5-1.8,2.7-3.6,3.8-5.3
				c0.2-0.3,0.5-0.6,0.7-1c1.5-2.4,2.7-5,3.5-7.9c0.8-2.8,1.2-5.9,1.2-9.1c0-3.6-0.4-6.9-1.2-9.9c0-0.2-0.1-0.3-0.1-0.5
				c-0.3-1.2-0.7-2.3-1.1-3.3l0,0l0,0l0,0l0,0c-0.1-0.4-0.3-0.7-0.5-1.1c-2-4.3-4.9-7.9-8.7-10.8c-3.7-2.7-8.2-4.8-13.4-6.1
				c-4.3-1.1-9.5-1.7-15.3-1.9l0,0l0,0l0,0l0,0c-1,0-2.1,0-3.2,0H123c-2,0-3.6,1.6-3.6,3.6v62.7v55.6c0,2,1.6,3.6,3.6,3.6h6.8h31.6
				h0.2c4.1-0.1,7.8-0.4,11.2-0.9c2.3-0.4,4.5-0.8,6.6-1.4l0,0l0,0l0,0l0,0c1.5-0.4,3-0.9,4.5-1.5c3.5-1.3,6.8-3,9.8-5.1
				s5.7-4.6,7.8-7.6c2.2-2.9,3.9-6.3,5.1-10.1C207.1,100.7,207.3,99.9,207.5,99C207.5,99.1,207.5,99.1,207.5,99
				C207.5,99.1,207.5,99.1,207.5,99C207.5,99.1,207.5,99.1,207.5,99L207.5,99z M178.1,102.8c-0.1-0.1-0.1-0.3-0.2-0.4
				c-0.2-0.6-0.5-1.1-0.7-1.6c-0.1-0.3-0.2-0.5-0.3-0.8c-0.4-0.8-0.7-1.6-1.1-2.3l0,0c-0.4-0.8-0.8-1.5-1.2-2.3
				c-0.1-0.2-0.3-0.5-0.4-0.7c-0.3-0.5-0.6-1-0.9-1.5c-0.1-0.1-0.1-0.2-0.2-0.4l14-10.2l10.7-7.7c0.9,1.4,1.6,3,2.2,4.6
				c0.2,0.5,0.3,1,0.5,1.6c0.4,1.4,0.7,2.8,0.8,4.2l0,0v0.1c0.1,1.2,0.2,2.4,0.2,3.6c0,2.2-0.2,4.3-0.5,6.3l-21.3,6.9L178.1,102.8z
				 M193.7,43.5c-0.6,2.2-1.5,4.1-2.6,5.9c-0.2,0.3-0.4,0.5-0.6,0.8c0,0.1-0.1,0.1-0.1,0.2c-1.5,2.4-3.5,4.9-5.8,7.5
				c-0.7,0.8-1.1,1.9-0.9,3c0.1,1.1,0.8,2,1.7,2.6c2.3,1.4,4.5,3.1,6.5,5c0.1,0.1,0.2,0.2,0.3,0.2c0.3,0.2,0.5,0.4,0.8,0.6
				l-12.3,8.9l-11.9,8.6c-0.1-0.1-0.2-0.2-0.3-0.3c-0.4-0.5-0.8-0.9-1.2-1.4c-0.2-0.2-0.3-0.4-0.5-0.6c-1.2-1.3-2.4-2.5-3.7-3.7
				c-0.2-0.2-0.4-0.4-0.6-0.5c-0.4-0.4-0.9-0.8-1.4-1.2c-0.1-0.1-0.2-0.2-0.3-0.3l33.6-46.4c0.1,1.3,0.2,2.6,0.2,3.9
				C194.6,38.9,194.3,41.3,193.7,43.5z M185.9,16.5c2.5,1.9,4.5,4.2,6,7l-37,51c-0.1-0.1-0.2-0.1-0.4-0.2c-0.5-0.3-1-0.6-1.5-0.9
				c-0.2-0.1-0.5-0.3-0.7-0.4c-0.7-0.4-1.5-0.8-2.3-1.2l0,0c-0.8-0.4-1.6-0.8-2.3-1.1c-0.2-0.1-0.5-0.2-0.7-0.3
				c-0.6-0.2-1.1-0.5-1.7-0.7c-0.1-0.1-0.3-0.1-0.4-0.2l14-43.1l5.1-16.3c4.2,0.2,7.9,0.8,11,1.6C179.3,12.7,183,14.4,185.9,16.5z
				 M126.6,9.9h29.7l-18.5,57.3c-0.1,0-0.3-0.1-0.4-0.1c-0.6-0.1-1.2-0.3-1.8-0.4c-0.3-0.1-0.5-0.1-0.8-0.2
				c-1.7-0.3-3.4-0.6-5.2-0.8c-0.3,0-0.5-0.1-0.8-0.1c-0.6-0.1-1.2-0.1-1.8-0.2c-0.1,0-0.3,0-0.4,0V9.9z M171.7,120.1
				c-3,0.5-6.5,0.7-10.1,0.8h-35V72.7c0.1,0,0.1,0,0.2,0c0.9,0.1,1.8,0.2,2.8,0.3c0.2,0,0.4,0.1,0.6,0.1c0.8,0.1,1.7,0.2,2.5,0.4
				c0.1,0,0.2,0,0.3,0.1c0.9,0.2,1.8,0.4,2.7,0.6c0.2,0.1,0.4,0.1,0.6,0.2c0.9,0.2,1.8,0.5,2.7,0.8c5.2,1.7,10.1,4.2,14.5,7.4
				c0.6,0.4,1.1,0.8,1.6,1.2c1.6,1.3,3.1,2.6,4.6,4.1c1.9,1.9,3.7,4,5.3,6.2l0,0c3.2,4.4,5.7,9.3,7.4,14.5l0,0
				c0.3,0.8,0.5,1.6,0.7,2.4c0,0.2,0.1,0.4,0.1,0.5c0.2,0.8,0.4,1.6,0.6,2.4c0,0.1,0,0.3,0.1,0.4c0.1,0.7,0.3,1.5,0.4,2.2
				c0,0.2,0.1,0.3,0.1,0.5c0.1,0.8,0.2,1.6,0.3,2.4c0,0.1,0,0.1,0,0.2C173.7,119.7,172.7,119.9,171.7,120.1z M189.7,113.3
				c-2.4,1.6-5,3-7.8,4.1c0-0.2-0.1-0.4-0.1-0.7c0-0.3-0.1-0.7-0.1-1s-0.1-0.7-0.2-1s-0.1-0.7-0.2-1c-0.1-0.3-0.1-0.7-0.2-1
				c-0.1-0.3-0.1-0.6-0.2-1c-0.1-0.3-0.2-0.7-0.2-1c-0.1-0.3-0.1-0.6-0.2-0.9c0-0.1,0-0.1,0-0.2l0.6-0.2l16.9-5.5
				c-0.6,1.2-1.3,2.3-2.1,3.4C194.1,109.7,192,111.7,189.7,113.3z"/>
		</g>
	</g>
	<g>
		<g>
			<g>
				<path class="st2" d="M168.8,228.3h8c1.6,0,2.9-1.3,2.9-2.9v-53.8c0-1.6-1.3-2.9-2.9-2.9h-8c-1.6,0-2.9,1.3-2.9,2.9v53.8
					C165.9,227.1,167.3,228.3,168.8,228.3z"/>
				<path class="st2" d="M232.3,214.7c-1.2-0.2-2.5-1.4-4.9-4.3c-0.8-1-1.8-2.2-2.7-3.5c-0.3-0.5-0.7-1-1.1-1.5
					c-0.2-0.4-0.6-0.7-0.8-1.2c-4.6-6.9-3.8-5.9-7-10.8c-1.2-1.8-1.5-2.2-2.2-3.2l-0.2-0.2c-0.9-1.3-2.7-1.7-4-0.8l-6.6,4.3
					c-1.3,0.9-1.7,2.7-0.8,4l1.7,2.5c1.4,2.1,0.7,1.2,2.3,3.5c2.1,3.1,1.8,2.7,4.2,6.4c0.6,0.8,0.9,1.7,0.9,2.4
					c0,0.4-0.1,0.8-0.3,1.2c-0.7,1.2-2.1,1.9-4.1,1.9c-2.7,0-4-0.5-8.3-1.4c-1.6-0.3-3.1-0.7-4.8-1.2c-0.2-0.1-0.4-0.2-0.7-0.2
					c-1.5-0.4-3.1,0.4-3.6,1.9L187,222c-0.5,1.6,0.4,3.2,2,3.6l5.1,1.3c5.8,1.3,8.5,2,12.5,2c3.6,0,6.8-0.8,9.6-2.4
					c1.5-0.8,2.9-1.9,4.1-3.1c3.7,3.3,6.9,5,10.9,5h1.9h2.1h0.2c5.3,0,7-2.1,9.3-4.4c0.2,0.2,0.7,0.4,1.4,0.8l0.8,0.5l0.9,0.5
					c1.5,0.8,3,1.6,4.3,2.2c3.9,1.7,7.6,2.6,11.1,2.6c0.5,0,0.9,0,1.2-0.1c1.4-0.1,2.8-0.4,4.2-1c1.7-0.7,3.2-1.7,4.5-3
					c3.4-3.4,5.1-8.4,5.1-15.2c0-2.1-0.2-4.1-0.8-6.5c-0.7-2.7-1.7-5.1-3-7.1c-3.4-5.4-8.4-8.1-14.8-8.1c-5.7,0-10.4,2.2-14.2,6.8
					c-1.2,1.6-2.4,3.4-3.3,5.4c-0.3,0.7-0.7,1.5-1,2.2c-0.2,0.3-0.2,0.6-0.3,0.9c-0.1,0.2-0.2,0.5-0.2,0.7c-1.3,3.7-2.1,5.6-2.3,6.3
					c-0.4,1.1-0.7,2.4-3.4,2.7C234.2,214.7,232.9,214.8,232.3,214.7z M264.9,215.4c-0.4,1.2-0.9,1.8-1.4,1.8c-1.2,0-2.9-0.3-5-1.1
					c-2.5-0.9-4.6-2.1-6.2-3.5l0.2-0.6l0.2-0.7c0.2-0.6,0.3-1,0.5-1.4c0.4-1.2,0.8-2.2,1.3-3.1c1.3-2.5,3.1-3.6,5.1-3.6
					c1.5,0,2.8,0.8,4,2.4c1.1,1.6,1.7,3.4,1.9,5.6c0,0.3,0,0.6,0,0.9C265.5,213.3,265.3,214.4,264.9,215.4z"/>
				<g>
					<path class="st2" d="M306.6,233.1c-2,0-3.6,0.7-5.1,2.1c-1.4,1.4-2.1,3.1-2.1,5.1s0.7,3.6,2.1,5.1c1.4,1.4,3.1,2.1,5.1,2.1
						s3.6-0.7,5.1-2.1c1.4-1.4,2.1-3.1,2.1-5.1s-0.7-3.6-2.1-5.1C310.3,233.7,308.6,233.1,306.6,233.1z"/>
					<path class="st2" d="M312.2,209.2c0.1,0.5,0.2,1,0.2,1.4c0,1.4-0.5,2.2-1.6,3.1c-1,0.7-2.2,1-3.1,1h-4.1
						c-1.7,0-2.9-0.3-3.5-0.9c-0.7-0.7-1-1.8-1-3.5v-38.6c0-1.6-1.3-2.9-2.9-2.9h-7.9c-1.6,0-2.9,1.3-2.9,2.9v38.5
						c0,3.1,0.6,5.9,1.7,8.3c0.8,1.9,1.9,3.5,3.3,4.9s3,2.5,4.9,3.3c2.5,1.1,5.2,1.7,8.3,1.7h4.4c6,0,11.3-2.4,14.8-7.2
						c2.2-3,3.2-6.4,3.2-10.2c0-1.2-0.1-2.5-0.3-3.8c-0.8-4.3-1.2-6.2-1.8-9.4c-0.3-1.7-2-2.7-3.6-2.2l-7.5,2.3
						c-1.4,0.4-2.2,1.8-2,3.3c0.2,0.7,0.2,1.2,0.3,2.1L312.2,209.2z"/>
				</g>
				<path class="st2" d="M128,226.4c7,1.5,9.3,1.9,13.3,1.9c3.5,0,6.5-0.8,9.4-2.4c2.7-1.6,4.9-3.7,6.4-6.5c1.2-2.3,1.8-4.8,1.8-7.5
					c0-0.6,0-1.1-0.1-1.7c-0.2-3.1-1.3-6-3.4-9.1c-1.7-2.5-4.9-7.4-6.6-9.8l-1.7-2.3c-0.9-1.3-2.7-1.6-4-0.7l-6.5,4.5
					c-1.3,0.9-1.7,2.7-0.7,4.1c0.5,0.7,1,1.5,1.7,2.4c1.4,2.1,1.5,2.2,3.1,4.6c2.2,3.3,1.1,1.6,3.5,5.2c0.7,1,1.1,1.9,1.1,2.7
					c0,0.4-0.1,0.8-0.3,1.2c-0.6,1-1.7,1.6-3.6,1.6c-2.6,0-3.7,0.1-8.3-1.1c-1.7-0.4-3.4-0.9-5.2-1.4c-0.3-0.1-0.7-0.2-1.1-0.3
					c-1.5-0.4-3.1,0.3-3.6,1.8l-2.6,7.5c-0.5,1.6,0.3,3.2,1.9,3.6C124.4,225.5,126.8,226.2,128,226.4z"/>
			</g>
		</g>
		<g>
			<g>
				<path class="st2" d="M10.4,200.8l-4.1-1.2c-1-0.3-2.1,0.2-2.3,1.3c-0.6,2.2-1.1,4.2-1.6,7c-0.3,1.7-0.4,3.2-0.4,4.6
					c0,1.6,0.2,3,0.4,4.2c0.3,1.2,0.7,2.3,1.1,3.3s0.9,1.8,1.5,2.6s1.1,1.3,1.7,1.8c1.3,1.2,2.9,2.2,4.6,2.9s3.6,1,5.6,1H37
					c2,0,4.1,0,6-0.1c2,0,4-0.2,5.8-0.3c1.8-0.2,3.6-0.5,5.2-0.9c1.7-0.4,3.1-1,4.5-1.7c1.3-0.7,2.5-1.7,3.5-2.9
					c0.8-1,1.6-2.2,2.1-3.6c0.1-0.3,0.6-0.4,0.7-0.2c1.2,1.3,2.3,2.4,3.5,3.5c1.3,1.2,2.8,2.3,4.3,3.2c1.6,0.9,3.2,1.6,5.1,2.1
					c1.6,0.4,3.5,0.7,5.5,0.7l0,0h0.9H85h3.6c1.8,0,3.6-0.3,5.3-0.9c1.7-0.6,3.3-1.6,4.7-2.8s2.6-2.9,3.4-4.8
					c0.9-1.9,1.4-3.5,1.4-6.2c0-0.9-0.1-2-0.2-3.2c-0.2-1.2-0.3-2.5-0.5-3.8s-0.4-2.7-0.7-4c-0.2-1.2-0.4-2-0.8-3.8
					c-0.2-1.1-1.3-1.7-2.3-1.4l-4,1.2c-0.9,0.2-1.5,1.2-1.2,2.2c0.4,1.8,0.6,2.9,0.8,4.1c0.2,1.2,0.3,2.2,0.5,3.3s0.2,2.1,0.4,3
					c0.1,0.9,0.2,1.7,0.2,2.3c0,1.6-0.4,2.5-0.9,3.5c-0.6,1-1.2,1.7-2,2.2c-0.7,0.5-1.6,0.8-2.3,0.9c-0.7,0.2-1.3,0.2-1.7,0.2H85
					h-0.9c-2.2,0-4-0.3-5.6-0.9c-1.6-0.6-3.1-1.5-4.6-2.8s-3.1-3-4.7-5.1c-1.7-2.1-3.6-4.5-5.7-7.5c-3.4-4.8-11.3-16-11.3-16
					c-0.2-0.2-0.1-0.6,0.2-0.7l28.8-14.5c0.9-0.4,1.3-1.5,0.9-2.4l-1.7-3.8c-0.4-0.9-1.5-1.3-2.5-0.9l-30.7,15.3
					c-1.6,0.7-2.7,2.2-3.1,3.9l-0.2,1.7c-0.3,1.5,0,3.1,0.9,4.4l9,12.8c0.7,1.1,1.5,2.2,2.2,3.2c0.7,1.1,1.2,2.2,1.5,3.1
					c0.3,1,0.6,2.1,0.6,3.1s-0.2,2-0.7,2.9c-0.3,0.7-1,1.3-2,1.9c-1,0.5-2.3,1-4,1.3c-1.7,0.4-3.6,0.7-6,0.8s-5.1,0.2-8.3,0.2h-20
					c-0.4,0-1-0.1-1.8-0.2c-0.8-0.2-1.6-0.5-2.4-1s-1.5-1.3-2.1-2.4s-0.9-2.5-0.9-4.4c0-0.9,0.1-2,0.3-3.2c0.3-1.7,0.9-3.8,1.4-6.1
					C11.9,202.1,11.4,201.1,10.4,200.8z"/>
			</g>
			<path class="st2" d="M103.9,182.7L103.9,182.7c-1.8-1.8-4.8-1.8-6.6,0l0,0c-1.7,1.8-1.7,4.6,0,6.4l0,0c1.8,1.8,4.7,1.8,6.5,0l0,0
				C105.6,187.3,105.6,184.4,103.9,182.7z"/>
			<path class="st2" d="M91.2,182.7L91.2,182.7c-1.8-1.8-4.8-1.8-6.6,0l0,0c-1.7,1.8-1.7,4.6,0,6.4l0,0c1.8,1.8,4.7,1.8,6.5,0l0,0
				C93,187.3,93,184.4,91.2,182.7z"/>
		</g>
	</g>
</g>
</svg>
